<?xml version="1.0" encoding="utf-8"?>
<!-- Generator: Adobe Illustrator 25.4.1, SVG Export Plug-In . SVG Version: 6.00 Build 0)  -->
<svg version="1.1" id="Layer_1" xmlns="http://www.w3.org/2000/svg" xmlns:xlink="http://www.w3.org/1999/xlink" x="0px" y="0px"
	 viewBox="0 0 500 500" style="enable-background:new 0 0 500 500;" xml:space="preserve">
<style type="text/css">
	.st0{fill:#04244D;}
	.st1{fill:#FFFFFF;}
	.st2{fill:#E09E45;}
</style>
<rect x="-1.9" y="-1.9" class="st0" width="503.8" height="503.8"/>
<g>
	<path class="st1" d="M186.8,85.4v20.8h-28.2v85.7h-25.9v-85.7h-28.2V85.4H186.8z"/>
	<path class="st1" d="M222.7,186c-8.3-4.6-15-11.2-19.9-19.5c-4.9-8.3-7.4-17.7-7.4-28.1c0-10.4,2.5-19.8,7.4-28.1
		c4.9-8.3,11.5-14.8,19.9-19.4c8.3-4.7,17.5-7,27.5-7c10,0,19.2,2.3,27.5,7c8.3,4.7,14.9,11.1,19.7,19.4c4.8,8.3,7.2,17.7,7.2,28.1
		c0,10.4-2.4,19.8-7.3,28.1c-4.9,8.3-11.4,14.8-19.7,19.5c-8.3,4.7-17.4,7-27.5,7C240.2,193,231.1,190.6,222.7,186z M270.7,160.8
		c5.1-5.7,7.7-13.1,7.7-22.5c0-9.4-2.6-16.9-7.7-22.5c-5.1-5.6-11.9-8.4-20.4-8.4c-8.6,0-15.5,2.8-20.6,8.3
		c-5.1,5.6-7.7,13.1-7.7,22.6c0,9.4,2.6,16.9,7.7,22.5c5.1,5.6,12,8.4,20.6,8.4C258.7,169.3,265.6,166.5,270.7,160.8z"/>
	<path class="st1" d="M345.1,106.2v21.5h34.7v20h-34.7v23.4h39.3v20.8h-65.2V85.4h65.2v20.8H345.1z"/>
	<g>
		<path class="st2" d="M305.5,270.4v64.2h-16.2v-64.2H305.5z"/>
		<path class="st2" d="M375.6,276.7c4.7,4.8,7.1,11.6,7.1,20.2v37.7h-16.2v-35.5c0-5.1-1.3-9-3.8-11.8c-2.6-2.7-6-4.1-10.4-4.1
			c-4.5,0-8,1.4-10.6,4.1c-2.6,2.7-3.9,6.7-3.9,11.8v35.5h-16.2v-64.2h16.2v8c2.2-2.8,4.9-5,8.3-6.6c3.4-1.6,7.1-2.4,11.1-2.4
			C364.7,269.5,370.9,271.9,375.6,276.7z"/>
	</g>
	<g>
		<path class="st2" d="M347.1,200.5L347.1,200.5L347.1,200.5L300,227.7l-1.4,0.8v25.7c0,0.3,0.4,0.5,0.9,0.5c0.5,0,0.9-0.2,0.9-0.5
			v-24.5l19.6,12.2c0.7-7.3,12.1-12.7,27.1-12.9h0.1c15,0.2,26.4,5.6,27.1,12.9l21.4-13.4L347.1,200.5z"/>
		<path class="st2" d="M347,231.8c-13.9,0-25.1,4.8-25.1,10.8v24.2c0-6,11.2-10.8,25.1-10.8c13.9,0,25.1,4.8,25.1,10.8v-24.2
			C372.2,236.6,360.9,231.8,347,231.8z"/>
	</g>
	<path class="st1" d="M201.4,227.9v20.8H158v22.5h32.5v20.2H158v43.1h-25.9V227.9H201.4z"/>
	<path class="st1" d="M241,314.4h34v20h-59.9V227.9H241V314.4z"/>
	<g>
		<path class="st1" d="M155.9,389.7c1.2,1.5,1.8,3.2,1.8,5.2c0,1.8-0.4,3.3-1.3,4.6s-2.1,2.4-3.7,3.1c-1.6,0.8-3.6,1.1-5.8,1.1
			h-14.2V371h13.5c2.2,0,4.1,0.4,5.8,1.1c1.6,0.7,2.8,1.7,3.7,3c0.8,1.3,1.2,2.7,1.2,4.4c0,1.9-0.5,3.5-1.5,4.8
			c-1,1.3-2.4,2.2-4.1,2.7C153.2,387.3,154.7,388.2,155.9,389.7z M139.3,384.5h6c1.6,0,2.8-0.4,3.6-1.1c0.8-0.7,1.3-1.7,1.3-3
			c0-1.3-0.4-2.3-1.3-3.1c-0.8-0.7-2.1-1.1-3.6-1.1h-6V384.5z M149.7,397.3c0.9-0.8,1.3-1.8,1.3-3.2c0-1.4-0.5-2.5-1.4-3.3
			s-2.2-1.2-3.8-1.2h-6.5v8.8h6.6C147.5,398.4,148.8,398.1,149.7,397.3z"/>
		<path class="st1" d="M187.9,377.7l-16.1,38.4h-7l5.6-13L160,377.7h7.4l6.7,18.2l6.8-18.2H187.9z"/>
		<path class="st1" d="M209.1,371v20.3c0,2.2,0.6,3.9,1.7,5.1c1.2,1.2,2.8,1.8,4.9,1.8c2.1,0,3.8-0.6,4.9-1.8
			c1.2-1.2,1.7-2.9,1.7-5.1V371h6.6v20.3c0,2.8-0.6,5.2-1.8,7.1c-1.2,1.9-2.8,3.4-4.8,4.4c-2,1-4.3,1.5-6.8,1.5
			c-2.4,0-4.7-0.5-6.7-1.5c-2-1-3.6-2.4-4.7-4.4c-1.2-1.9-1.7-4.3-1.7-7.1V371H209.1z"/>
		<path class="st1" d="M257.4,380.3c1.9,2,2.9,4.7,2.9,8.2v15.3h-6.6v-14.4c0-2.1-0.5-3.7-1.6-4.8c-1-1.1-2.4-1.7-4.2-1.7
			c-1.8,0-3.3,0.6-4.3,1.7c-1.1,1.1-1.6,2.7-1.6,4.8v14.4h-6.6v-26.1h6.6v3.2c0.9-1.1,2-2,3.4-2.7c1.4-0.6,2.9-1,4.5-1
			C253,377.4,255.5,378.3,257.4,380.3z"/>
		<path class="st1" d="M266.4,383.7c1-2,2.5-3.6,4.3-4.7c1.8-1.1,3.8-1.6,6.1-1.6c1.7,0,3.3,0.4,4.8,1.1c1.5,0.7,2.8,1.7,3.7,2.9
			V369h6.7v34.8h-6.7v-3.9c-0.8,1.3-2,2.3-3.4,3.1c-1.5,0.8-3.2,1.2-5.1,1.2c-2.2,0-4.2-0.6-6-1.7c-1.8-1.1-3.3-2.7-4.3-4.8
			c-1.1-2.1-1.6-4.4-1.6-7.1C264.8,388,265.3,385.7,266.4,383.7z M284.4,386.6c-0.6-1.1-1.5-2-2.5-2.6c-1.1-0.6-2.2-0.9-3.4-0.9
			c-1.2,0-2.4,0.3-3.4,0.9c-1,0.6-1.9,1.5-2.5,2.6c-0.6,1.1-1,2.5-1,4.1s0.3,2.9,1,4.1c0.6,1.2,1.5,2.1,2.5,2.7
			c1.1,0.6,2.2,0.9,3.4,0.9c1.2,0,2.4-0.3,3.4-0.9c1.1-0.6,1.9-1.5,2.5-2.6c0.6-1.1,0.9-2.5,0.9-4.1S285,387.8,284.4,386.6z"/>
		<path class="st1" d="M303.2,402.5c-2-1.1-3.6-2.7-4.7-4.7c-1.1-2-1.7-4.4-1.7-7.1c0-2.7,0.6-5,1.8-7.1c1.2-2,2.8-3.6,4.8-4.7
			c2-1.1,4.3-1.7,6.8-1.7c2.5,0,4.8,0.6,6.8,1.7c2,1.1,3.6,2.7,4.8,4.7c1.2,2,1.8,4.4,1.8,7.1c0,2.7-0.6,5-1.8,7.1
			c-1.2,2-2.8,3.6-4.9,4.7c-2.1,1.1-4.4,1.7-6.9,1.7C307.5,404.2,305.2,403.7,303.2,402.5z M313.3,397.6c1-0.6,1.9-1.5,2.5-2.6
			c0.6-1.2,0.9-2.6,0.9-4.2c0-2.5-0.7-4.4-2-5.7c-1.3-1.3-2.9-2-4.8-2c-1.9,0-3.5,0.7-4.7,2c-1.3,1.3-1.9,3.2-1.9,5.7
			c0,2.5,0.6,4.4,1.9,5.7c1.2,1.3,2.8,2,4.7,2C311.2,398.5,312.3,398.2,313.3,397.6z"/>
		<path class="st1" d="M339.3,397.7l6.6-20h7l-9.6,26.1h-8l-9.6-26.1h7.1L339.3,397.7z"/>
		<path class="st1" d="M356.5,383.7c1-2,2.5-3.6,4.3-4.7c1.8-1.1,3.8-1.6,6-1.6c1.9,0,3.6,0.4,5.1,1.2c1.5,0.8,2.6,1.8,3.5,3v-3.7
			h6.6v26.1h-6.6V400c-0.8,1.2-2,2.2-3.5,3c-1.5,0.8-3.2,1.2-5.2,1.2c-2.2,0-4.2-0.6-6-1.7c-1.8-1.1-3.2-2.7-4.3-4.8
			c-1.1-2.1-1.6-4.4-1.6-7.1C354.9,388,355.4,385.7,356.5,383.7z M374.5,386.6c-0.6-1.1-1.5-2-2.5-2.6c-1.1-0.6-2.2-0.9-3.4-0.9
			c-1.2,0-2.4,0.3-3.4,0.9c-1,0.6-1.9,1.5-2.5,2.6c-0.6,1.1-1,2.5-1,4.1s0.3,2.9,1,4.1c0.6,1.2,1.5,2.1,2.5,2.7
			c1.1,0.6,2.2,0.9,3.4,0.9c1.2,0,2.4-0.3,3.4-0.9s1.9-1.5,2.5-2.6c0.6-1.1,0.9-2.5,0.9-4.1S375.1,387.8,374.5,386.6z"/>
	</g>
</g>
</svg>
