<?xml version="1.0" encoding="utf-8"?>
<!-- Generator: Adobe Illustrator 25.4.1, SVG Export Plug-In . SVG Version: 6.00 Build 0)  -->
<svg version="1.1" id="Layer_1" xmlns="http://www.w3.org/2000/svg" xmlns:xlink="http://www.w3.org/1999/xlink" x="0px" y="0px"
	 viewBox="0 0 239.3 239.3" style="enable-background:new 0 0 239.3 239.3;" xml:space="preserve">
<style type="text/css">
	.st0{fill:#160B8B;}
	.st1{fill:#FFFFFF;}
</style>
<rect x="0.2" y="-0.4" class="st0" width="238.9" height="240.1"/>
<g>
	<g>
		<polygon class="st1" points="104.4,103.9 90.9,128.1 64.4,128.1 78,103.9 		"/>
		<polygon class="st1" points="174.9,79.1 161,103.9 147.5,128.1 119.8,128.1 106.3,103.9 105.3,102.2 92.4,79.1 65.8,79.1 
			78.4,56.6 161,56.6 148.4,79.1 118.8,79.1 132.6,103.9 133.6,105.6 134.6,103.9 148.4,79.1 		"/>
	</g>
	<g>
		<g>
			<g>
				<polygon class="st1" points="76.4,144.5 55.6,144.5 54.5,149.7 61.7,149.7 58.1,167.8 64.6,167.8 68.3,149.7 75.4,149.7 				"/>
				<path class="st1" d="M95.6,145.4c-1.7-0.9-3.8-1.3-6.2-1.3c-2.1,0-4.1,0.3-5.8,1c-1.8,0.7-3.3,1.7-4.6,2.9
					c-1.3,1.2-2.3,2.7-3,4.4s-1.1,3.6-1.1,5.6s0.5,3.8,1.4,5.3c0.9,1.5,2.3,2.7,4,3.6c1.7,0.9,3.8,1.3,6.2,1.3c2.1,0,4.1-0.3,5.8-1
					c1.8-0.7,3.3-1.7,4.6-2.9c1.3-1.2,2.3-2.7,3-4.4s1.1-3.6,1.1-5.6s-0.5-3.8-1.4-5.3C98.6,147.4,97.3,146.3,95.6,145.4z
					 M93.8,157.8c-0.3,1-0.8,1.9-1.4,2.6c-0.6,0.8-1.4,1.4-2.3,1.8c-0.9,0.4-1.9,0.6-3.1,0.6c-1.2,0-2.2-0.2-3-0.6
					c-0.8-0.4-1.4-1-1.9-1.8c-0.4-0.8-0.6-1.7-0.6-2.7c0-1.1,0.2-2.1,0.5-3.1c0.3-1,0.8-1.9,1.4-2.6c0.6-0.8,1.4-1.4,2.3-1.8
					c0.9-0.4,1.9-0.6,3-0.6c1.2,0,2.2,0.2,3,0.6c0.8,0.4,1.4,1,1.9,1.8c0.4,0.8,0.6,1.7,0.6,2.7C94.3,155.8,94.1,156.8,93.8,157.8z"
					/>
				<polygon class="st1" points="123.8,149.6 124.8,144.5 106.6,144.5 102,167.8 120.6,167.8 121.7,162.7 109.5,162.7 110.3,158.4 
					120.6,158.4 121.6,153.5 111.3,153.5 112.1,149.6 				"/>
				<polygon class="st1" points="134.4,149.6 146.1,149.6 147.1,144.5 128.9,144.5 124.3,167.8 130.8,167.8 132.4,159.8 
					142.6,159.8 143.7,154.7 133.4,154.7 				"/>
				<polygon class="st1" points="156.8,144.5 150.2,144.5 145.6,167.8 163.2,167.8 164.3,162.6 153.2,162.6 				"/>
				<path class="st1" d="M171.3,148.8c-0.6,0-1.1,0.2-1.5,0.6c-0.4,0.4-0.6,0.8-0.6,1.4c0,0.5,0.2,0.9,0.5,1.2
					c0.3,0.3,0.8,0.5,1.3,0.5c0.6,0,1.2-0.2,1.5-0.6c0.4-0.4,0.6-0.9,0.6-1.5c0-0.5-0.2-0.8-0.5-1.2
					C172.3,149,171.9,148.8,171.3,148.8z"/>
				<polygon class="st1" points="166.2,167.8 169.3,167.8 171.9,154.7 168.8,154.7 				"/>
				<path class="st1" d="M187.6,157.2c-0.3-0.9-0.9-1.6-1.7-2s-1.7-0.7-2.9-0.7c-1.1,0-2.2,0.2-3.1,0.6c-0.5,0.2-1,0.6-1.4,1
					l0.3-1.4H176l-2.6,13.1h3.1l1.4-6.8c0.3-1.3,0.8-2.2,1.5-2.8c0.7-0.6,1.7-0.9,2.8-0.9c1.1,0,1.8,0.3,2.2,0.9
					c0.4,0.6,0.5,1.4,0.3,2.5l-1.4,7.2h3.1l1.4-7.3C188,159.2,187.9,158.1,187.6,157.2z"/>
			</g>
		</g>
		<g>
			<path class="st1" d="M55.6,180c-0.1,0.6-0.3,1-0.6,1.3c-0.3,0.3-0.7,0.4-1.1,0.4c-0.5,0-0.9-0.1-1.1-0.4
				c-0.2-0.3-0.3-0.7-0.2-1.3l0.7-3.4h-1.1l-0.7,3.4c-0.1,0.6-0.1,1,0.1,1.4s0.4,0.7,0.8,0.9c0.4,0.2,0.8,0.3,1.4,0.3
				c0.8,0,1.4-0.2,1.9-0.7c0.5-0.4,0.8-1.1,1-2l0.7-3.4h-1.1L55.6,180z"/>
			<path class="st1" d="M61.9,178.3c-0.3-0.1-0.6-0.2-1-0.2c-0.4,0-0.8,0.1-1.1,0.2c-0.2,0.1-0.3,0.2-0.5,0.3l0.1-0.5h-1l-0.9,4.5
				h1.1l0.5-2.4c0.1-0.4,0.3-0.8,0.5-1c0.3-0.2,0.6-0.3,1-0.3c0.4,0,0.6,0.1,0.8,0.3s0.2,0.5,0.1,0.9l-0.5,2.5H62l0.5-2.5
				c0.1-0.5,0.1-0.8,0-1.1C62.4,178.7,62.2,178.5,61.9,178.3z"/>
			<path class="st1" d="M65.1,176.1c-0.2,0-0.4,0.1-0.5,0.2c-0.1,0.1-0.2,0.3-0.2,0.5c0,0.2,0.1,0.3,0.2,0.4
				c0.1,0.1,0.3,0.2,0.5,0.2c0.2,0,0.4-0.1,0.5-0.2c0.1-0.1,0.2-0.3,0.2-0.5c0-0.1-0.1-0.3-0.2-0.4
				C65.5,176.1,65.3,176.1,65.1,176.1z"/>
			<polygon class="st1" points="63.4,182.7 64.4,182.7 65.3,178.1 64.3,178.1 			"/>
			<polygon class="st1" points="69.9,178.1 67.8,181.5 67.1,178.1 66,178.1 67.1,182.7 68.2,182.7 71,178.1 			"/>
			<path class="st1" d="M74.4,178.3c-0.3-0.1-0.7-0.2-1.1-0.2c-0.5,0-1,0.1-1.4,0.3c-0.4,0.2-0.7,0.6-0.9,1
				c-0.2,0.4-0.3,0.9-0.3,1.4c0,0.4,0.1,0.8,0.3,1c0.2,0.3,0.4,0.5,0.8,0.7c0.3,0.2,0.7,0.3,1.2,0.3c0.3,0,0.7-0.1,1-0.1
				c0.3-0.1,0.6-0.3,0.8-0.5l-0.4-0.8c-0.1,0.1-0.3,0.3-0.6,0.3c-0.2,0.1-0.5,0.1-0.7,0.1c-0.5,0-0.8-0.1-1-0.3
				c-0.2-0.2-0.3-0.5-0.3-0.8h3.6c0-0.1,0-0.2,0.1-0.3c0-0.1,0-0.2,0-0.3c0-0.4-0.1-0.8-0.3-1.1C75,178.7,74.7,178.5,74.4,178.3z
				 M72.5,179.2c0.2-0.1,0.5-0.2,0.8-0.2c0.3,0,0.5,0.1,0.7,0.1c0.2,0.1,0.3,0.3,0.4,0.4c0.1,0.1,0.1,0.3,0.1,0.5h-2.6
				c0-0.1,0.1-0.2,0.1-0.3C72.1,179.5,72.2,179.3,72.5,179.2z"/>
			<path class="st1" d="M79.3,179.1l0.2-1c-0.5,0-0.9,0.1-1.2,0.2c-0.2,0.1-0.4,0.2-0.6,0.4l0.1-0.6h-1l-0.9,4.5H77l0.5-2.2
				c0.1-0.5,0.3-0.8,0.6-1c0.3-0.2,0.6-0.3,1-0.3C79.1,179.1,79.1,179.1,79.3,179.1C79.2,179.1,79.2,179.1,79.3,179.1z"/>
			<path class="st1" d="M81,179.1c0.2-0.1,0.4-0.1,0.8-0.1c0.2,0,0.5,0,0.7,0.1c0.2,0.1,0.5,0.1,0.7,0.3l0.4-0.8
				c-0.2-0.1-0.4-0.2-0.7-0.3c-0.3-0.1-0.6-0.1-0.9-0.1c-0.4,0-0.8,0.1-1.1,0.2c-0.3,0.1-0.6,0.3-0.8,0.5c-0.2,0.2-0.3,0.5-0.3,0.8
				c0,0.3,0.1,0.5,0.2,0.6s0.3,0.3,0.5,0.3c0.2,0.1,0.4,0.1,0.6,0.2c0.2,0,0.4,0.1,0.6,0.1c0.2,0,0.3,0.1,0.5,0.1
				c0.1,0.1,0.2,0.1,0.2,0.3c0,0.2-0.1,0.3-0.3,0.4s-0.4,0.1-0.8,0.1c-0.3,0-0.6,0-0.9-0.1c-0.3-0.1-0.5-0.2-0.7-0.3l-0.4,0.8
				c0.2,0.1,0.5,0.3,0.8,0.3c0.3,0.1,0.7,0.1,1.1,0.1c0.4,0,0.8-0.1,1.1-0.2c0.3-0.1,0.6-0.3,0.8-0.5c0.2-0.2,0.3-0.5,0.3-0.8
				c0-0.3-0.1-0.5-0.2-0.6c-0.1-0.1-0.3-0.3-0.5-0.3c-0.2-0.1-0.4-0.1-0.6-0.2c-0.2,0-0.4-0.1-0.6-0.1c-0.2,0-0.3-0.1-0.5-0.2
				c-0.1-0.1-0.2-0.2-0.2-0.3C80.8,179.3,80.9,179.2,81,179.1z"/>
			<polygon class="st1" points="83.9,182.7 85,182.7 85.9,178.1 84.8,178.1 			"/>
			<path class="st1" d="M85.7,176.1c-0.2,0-0.4,0.1-0.5,0.2c-0.1,0.1-0.2,0.3-0.2,0.5c0,0.2,0.1,0.3,0.2,0.4
				c0.1,0.1,0.3,0.2,0.5,0.2c0.2,0,0.4-0.1,0.5-0.2c0.1-0.1,0.2-0.3,0.2-0.5c0-0.1-0.1-0.3-0.2-0.4S85.8,176.1,85.7,176.1z"/>
			<path class="st1" d="M88.7,177.1h-1.1l-0.2,1h-0.8l-0.2,0.8h0.7l-0.4,2.2c-0.1,0.3-0.1,0.6,0.1,0.8c0.1,0.2,0.3,0.4,0.5,0.6
				c0.2,0.1,0.5,0.2,0.8,0.2c0.2,0,0.4,0,0.6-0.1c0.2,0,0.4-0.1,0.5-0.2l-0.2-0.8c-0.1,0.1-0.2,0.1-0.3,0.1c-0.1,0-0.2,0.1-0.3,0.1
				c-0.2,0-0.4-0.1-0.5-0.2c-0.1-0.1-0.1-0.3-0.1-0.5l0.4-2.2h1.2l0.2-0.8h-1.2L88.7,177.1z"/>
			<path class="st1" d="M94,178.8c-0.1-0.2-0.3-0.4-0.6-0.5c-0.3-0.1-0.6-0.2-1-0.2c-0.4,0-0.7,0.1-1,0.2c-0.3,0.1-0.6,0.3-0.8,0.6
				c-0.2,0.2-0.4,0.5-0.6,0.8c-0.1,0.3-0.2,0.7-0.2,1.1c0,0.4,0.1,0.8,0.3,1.1s0.4,0.5,0.7,0.7c0.3,0.1,0.6,0.2,1,0.2
				c0.5,0,0.9-0.1,1.2-0.3c0.1-0.1,0.1-0.1,0.2-0.2l-0.1,0.5h1l0.9-4.5h-1.1L94,178.8z M93,181.6c-0.2,0.1-0.5,0.2-0.8,0.2
				c-0.4,0-0.7-0.1-0.9-0.3c-0.2-0.2-0.3-0.5-0.3-0.8s0.1-0.6,0.2-0.9c0.1-0.3,0.3-0.5,0.6-0.6c0.2-0.1,0.5-0.2,0.8-0.2
				c0.4,0,0.7,0.1,0.9,0.3c0.2,0.2,0.3,0.5,0.3,0.8c0,0.3-0.1,0.6-0.2,0.9C93.4,181.3,93.2,181.5,93,181.6z"/>
			<path class="st1" d="M97.2,179.1c0.2-0.1,0.4-0.1,0.8-0.1c0.2,0,0.5,0,0.7,0.1c0.2,0.1,0.5,0.1,0.7,0.3l0.4-0.8
				c-0.2-0.1-0.4-0.2-0.7-0.3c-0.3-0.1-0.6-0.1-0.9-0.1c-0.4,0-0.8,0.1-1.1,0.2c-0.3,0.1-0.6,0.3-0.8,0.5c-0.2,0.2-0.3,0.5-0.3,0.8
				c0,0.3,0.1,0.5,0.2,0.6c0.1,0.1,0.3,0.3,0.5,0.3c0.2,0.1,0.4,0.1,0.6,0.2c0.2,0,0.4,0.1,0.6,0.1c0.2,0,0.3,0.1,0.5,0.1
				c0.1,0.1,0.2,0.1,0.2,0.3c0,0.2-0.1,0.3-0.3,0.4s-0.4,0.1-0.8,0.1c-0.3,0-0.6,0-0.9-0.1c-0.3-0.1-0.5-0.2-0.7-0.3l-0.4,0.8
				c0.2,0.1,0.5,0.3,0.8,0.3c0.3,0.1,0.7,0.1,1.1,0.1c0.4,0,0.8-0.1,1.1-0.2c0.3-0.1,0.6-0.3,0.8-0.5c0.2-0.2,0.3-0.5,0.3-0.8
				c0-0.3-0.1-0.5-0.2-0.6c-0.1-0.1-0.3-0.3-0.5-0.3c-0.2-0.1-0.4-0.1-0.6-0.2c-0.2,0-0.4-0.1-0.6-0.1c-0.2,0-0.3-0.1-0.5-0.2
				c-0.1-0.1-0.2-0.2-0.2-0.3C97,179.3,97,179.2,97.2,179.1z"/>
			<path class="st1" d="M106.6,181.6c-0.3,0.1-0.6,0.2-0.9,0.2c-0.4,0-0.8-0.1-1-0.2c-0.3-0.1-0.5-0.3-0.6-0.6
				c-0.1-0.3-0.2-0.6-0.2-0.9c0-0.3,0.1-0.7,0.2-1s0.3-0.6,0.5-0.8c0.2-0.2,0.5-0.4,0.8-0.6c0.3-0.1,0.6-0.2,1-0.2
				c0.3,0,0.7,0.1,0.9,0.2c0.3,0.1,0.5,0.3,0.6,0.5l0.8-0.7c-0.2-0.3-0.5-0.6-0.9-0.8c-0.4-0.2-0.8-0.3-1.4-0.3
				c-0.6,0-1.1,0.1-1.5,0.3c-0.5,0.2-0.8,0.4-1.2,0.8c-0.3,0.3-0.6,0.7-0.8,1.1c-0.2,0.4-0.3,0.9-0.3,1.4c0,0.5,0.1,1,0.3,1.3
				c0.2,0.4,0.6,0.7,1,0.9s1,0.3,1.6,0.3c0.5,0,1-0.1,1.4-0.2c0.4-0.1,0.8-0.4,1.1-0.7l-0.6-0.7
				C107.1,181.3,106.9,181.5,106.6,181.6z"/>
			<path class="st1" d="M112.4,178.3c-0.3-0.2-0.7-0.2-1.2-0.2c-0.5,0-1,0.1-1.4,0.3c-0.4,0.2-0.7,0.6-1,1c-0.2,0.4-0.3,0.9-0.3,1.4
				c0,0.4,0.1,0.8,0.3,1c0.2,0.3,0.4,0.5,0.8,0.7c0.3,0.2,0.7,0.3,1.2,0.3c0.5,0,1-0.1,1.4-0.3c0.4-0.2,0.7-0.6,1-1
				c0.2-0.4,0.3-0.9,0.3-1.4c0-0.4-0.1-0.8-0.3-1.1C113,178.7,112.7,178.5,112.4,178.3z M112.2,181c-0.1,0.3-0.3,0.5-0.6,0.6
				c-0.2,0.1-0.5,0.2-0.8,0.2c-0.4,0-0.7-0.1-0.9-0.3c-0.2-0.2-0.3-0.5-0.3-0.8s0.1-0.6,0.2-0.9s0.3-0.5,0.6-0.6
				c0.2-0.1,0.5-0.2,0.8-0.2c0.4,0,0.7,0.1,0.9,0.3c0.2,0.2,0.3,0.5,0.3,0.8C112.4,180.5,112.3,180.7,112.2,181z"/>
			<path class="st1" d="M116.4,178.3c-0.2,0.1-0.4,0.2-0.6,0.4l0.1-0.6h-1l-0.9,4.5h1.1l0.5-2.2c0.1-0.5,0.3-0.8,0.6-1
				c0.3-0.2,0.6-0.3,1-0.3c0.1,0,0.1,0,0.1,0c0,0,0.1,0,0.1,0l0.2-1C117.1,178.1,116.7,178.1,116.4,178.3z"/>
			<path class="st1" d="M121.6,178.8c-0.1-0.2-0.3-0.4-0.6-0.5c-0.3-0.1-0.6-0.2-1-0.2c-0.4,0-0.7,0.1-1,0.2
				c-0.3,0.1-0.6,0.3-0.8,0.6s-0.4,0.5-0.6,0.8c-0.1,0.3-0.2,0.7-0.2,1.1c0,0.4,0.1,0.8,0.3,1.1c0.2,0.3,0.4,0.5,0.7,0.7
				c0.3,0.2,0.6,0.2,1,0.2c0.4,0,0.7-0.1,1-0.2c0.2-0.1,0.3-0.2,0.5-0.3l-0.1,0.5h1l1.3-6.3h-1.1L121.6,178.8z M120.6,181.6
				c-0.2,0.1-0.5,0.2-0.8,0.2c-0.4,0-0.7-0.1-0.9-0.3c-0.2-0.2-0.3-0.5-0.3-0.8s0.1-0.6,0.2-0.9c0.1-0.3,0.3-0.5,0.6-0.6
				c0.2-0.1,0.5-0.2,0.8-0.2c0.4,0,0.7,0.1,0.9,0.3c0.2,0.2,0.3,0.5,0.3,0.8c0,0.3-0.1,0.6-0.2,0.9
				C121,181.3,120.8,181.5,120.6,181.6z"/>
			<path class="st1" d="M127.2,178.3c-0.3-0.2-0.7-0.2-1.2-0.2c-0.5,0-1,0.1-1.4,0.3c-0.4,0.2-0.7,0.6-1,1c-0.2,0.4-0.3,0.9-0.3,1.4
				c0,0.4,0.1,0.8,0.3,1c0.2,0.3,0.4,0.5,0.8,0.7c0.3,0.2,0.7,0.3,1.2,0.3c0.5,0,1-0.1,1.4-0.3c0.4-0.2,0.7-0.6,1-1s0.3-0.9,0.3-1.4
				c0-0.4-0.1-0.8-0.3-1.1C127.8,178.7,127.6,178.5,127.2,178.3z M127,181c-0.1,0.3-0.3,0.5-0.6,0.6c-0.2,0.1-0.5,0.2-0.8,0.2
				c-0.4,0-0.7-0.1-0.9-0.3c-0.2-0.2-0.3-0.5-0.3-0.8s0.1-0.6,0.2-0.9s0.3-0.5,0.6-0.6c0.2-0.1,0.5-0.2,0.8-0.2
				c0.4,0,0.7,0.1,0.9,0.3c0.2,0.2,0.3,0.5,0.3,0.8C127.2,180.5,127.2,180.7,127,181z"/>
			<polygon class="st1" points="132.8,178.1 130.7,181.5 129.9,178.1 128.9,178.1 129.9,182.7 131,182.7 133.9,178.1 			"/>
			<path class="st1" d="M137.7,178.8c-0.1-0.2-0.3-0.4-0.6-0.5c-0.3-0.1-0.6-0.2-1-0.2c-0.4,0-0.7,0.1-1,0.2
				c-0.3,0.1-0.6,0.3-0.8,0.6c-0.2,0.2-0.4,0.5-0.6,0.8c-0.1,0.3-0.2,0.7-0.2,1.1c0,0.4,0.1,0.8,0.3,1.1c0.2,0.3,0.4,0.5,0.7,0.7
				c0.3,0.1,0.6,0.2,1,0.2c0.5,0,0.9-0.1,1.2-0.3c0.1-0.1,0.1-0.1,0.2-0.2l-0.1,0.5h1l0.9-4.5h-1.1L137.7,178.8z M136.6,181.6
				c-0.2,0.1-0.5,0.2-0.8,0.2c-0.4,0-0.7-0.1-0.9-0.3c-0.2-0.2-0.3-0.5-0.3-0.8s0.1-0.6,0.2-0.9c0.1-0.3,0.3-0.5,0.6-0.6
				c0.2-0.1,0.5-0.2,0.8-0.2c0.4,0,0.7,0.1,0.9,0.3c0.2,0.2,0.3,0.5,0.3,0.8c0,0.3-0.1,0.6-0.2,0.9
				C137.1,181.3,136.9,181.5,136.6,181.6z"/>
			<polygon class="st1" points="141.8,182.7 142.9,182.7 144.1,176.7 143,176.7 			"/>
			<path class="st1" d="M148.8,178.3c-0.3-0.1-0.6-0.2-1-0.2c-0.4,0-0.8,0.1-1.1,0.2c-0.2,0.1-0.3,0.2-0.5,0.3l0.1-0.5h-1l-0.9,4.5
				h1.1l0.5-2.4c0.1-0.4,0.3-0.8,0.5-1c0.3-0.2,0.6-0.3,1-0.3c0.4,0,0.6,0.1,0.8,0.3s0.2,0.5,0.1,0.9l-0.5,2.5h1.1l0.5-2.5
				c0.1-0.5,0.1-0.8,0-1.1C149.3,178.7,149.1,178.5,148.8,178.3z"/>
			<path class="st1" d="M154.4,178.8c-0.1-0.2-0.3-0.4-0.6-0.5c-0.3-0.1-0.6-0.2-1-0.2c-0.4,0-0.7,0.1-1,0.2s-0.6,0.3-0.8,0.6
				c-0.2,0.2-0.4,0.5-0.6,0.8c-0.1,0.3-0.2,0.7-0.2,1.1c0,0.4,0.1,0.8,0.3,1.1c0.2,0.3,0.4,0.5,0.7,0.7s0.6,0.2,1,0.2s0.7-0.1,1-0.2
				c0.2-0.1,0.3-0.2,0.5-0.3l-0.1,0.5h1l1.3-6.3h-1.1L154.4,178.8z M153.4,181.6c-0.2,0.1-0.5,0.2-0.8,0.2c-0.4,0-0.7-0.1-0.9-0.3
				c-0.2-0.2-0.3-0.5-0.3-0.8s0.1-0.6,0.2-0.9c0.1-0.3,0.3-0.5,0.6-0.6s0.5-0.2,0.8-0.2c0.4,0,0.7,0.1,0.9,0.3
				c0.2,0.2,0.3,0.5,0.3,0.8c0,0.3-0.1,0.6-0.2,0.9C153.8,181.3,153.6,181.5,153.4,181.6z"/>
			<path class="st1" d="M160,178.3c-0.3-0.2-0.7-0.2-1.2-0.2c-0.5,0-1,0.1-1.4,0.3c-0.4,0.2-0.7,0.6-1,1s-0.3,0.9-0.3,1.4
				c0,0.4,0.1,0.8,0.3,1c0.2,0.3,0.4,0.5,0.8,0.7c0.3,0.2,0.7,0.3,1.2,0.3c0.5,0,1-0.1,1.4-0.3c0.4-0.2,0.7-0.6,1-1
				c0.2-0.4,0.3-0.9,0.3-1.4c0-0.4-0.1-0.8-0.3-1.1C160.7,178.7,160.4,178.5,160,178.3z M159.8,181c-0.1,0.3-0.3,0.5-0.6,0.6
				c-0.2,0.1-0.5,0.2-0.8,0.2c-0.4,0-0.7-0.1-0.9-0.3c-0.2-0.2-0.3-0.5-0.3-0.8s0.1-0.6,0.2-0.9s0.3-0.5,0.6-0.6
				c0.2-0.1,0.5-0.2,0.8-0.2c0.4,0,0.7,0.1,0.9,0.3c0.2,0.2,0.3,0.5,0.3,0.8C160,180.5,160,180.7,159.8,181z"/>
			<path class="st1" d="M166,178.3c-0.3-0.1-0.6-0.2-1-0.2c-0.4,0-0.8,0.1-1.1,0.2c-0.2,0.1-0.3,0.2-0.5,0.3l0.1-0.5h-1l-0.9,4.5
				h1.1l0.5-2.4c0.1-0.4,0.3-0.8,0.5-1c0.3-0.2,0.6-0.3,1-0.3c0.4,0,0.6,0.1,0.8,0.3s0.2,0.5,0.1,0.9l-0.5,2.5h1.1l0.5-2.5
				c0.1-0.5,0.1-0.8,0-1.1C166.5,178.7,166.3,178.5,166,178.3z"/>
			<path class="st1" d="M171.3,178.3c-0.3-0.1-0.7-0.2-1.1-0.2c-0.5,0-1,0.1-1.4,0.3c-0.4,0.2-0.7,0.6-0.9,1s-0.3,0.9-0.3,1.4
				c0,0.4,0.1,0.8,0.3,1c0.2,0.3,0.4,0.5,0.8,0.7c0.3,0.2,0.7,0.3,1.2,0.3c0.3,0,0.7-0.1,1-0.1c0.3-0.1,0.6-0.3,0.8-0.5l-0.4-0.8
				c-0.1,0.1-0.3,0.3-0.6,0.3c-0.2,0.1-0.5,0.1-0.7,0.1c-0.5,0-0.8-0.1-1-0.3s-0.3-0.5-0.3-0.8h3.6c0-0.1,0-0.2,0.1-0.3
				c0-0.1,0-0.2,0-0.3c0-0.4-0.1-0.8-0.3-1.1C171.9,178.7,171.6,178.5,171.3,178.3z M169.3,179.2c0.2-0.1,0.5-0.2,0.8-0.2
				c0.3,0,0.5,0.1,0.7,0.1c0.2,0.1,0.3,0.3,0.4,0.4c0.1,0.1,0.1,0.3,0.1,0.5h-2.6c0-0.1,0.1-0.2,0.1-0.3
				C168.9,179.5,169,179.3,169.3,179.2z"/>
			<path class="st1" d="M174.3,179.1c0.2-0.1,0.4-0.1,0.8-0.1c0.2,0,0.5,0,0.7,0.1c0.2,0.1,0.5,0.1,0.7,0.3l0.4-0.8
				c-0.2-0.1-0.4-0.2-0.7-0.3c-0.3-0.1-0.6-0.1-0.9-0.1c-0.4,0-0.8,0.1-1.1,0.2c-0.3,0.1-0.6,0.3-0.8,0.5c-0.2,0.2-0.3,0.5-0.3,0.8
				c0,0.3,0.1,0.5,0.2,0.6s0.3,0.3,0.5,0.3c0.2,0.1,0.4,0.1,0.6,0.2c0.2,0,0.4,0.1,0.6,0.1c0.2,0,0.3,0.1,0.5,0.1
				c0.1,0.1,0.2,0.1,0.2,0.3c0,0.2-0.1,0.3-0.3,0.4c-0.2,0.1-0.4,0.1-0.8,0.1c-0.3,0-0.6,0-0.9-0.1c-0.3-0.1-0.5-0.2-0.7-0.3
				l-0.4,0.8c0.2,0.1,0.5,0.3,0.8,0.3s0.7,0.1,1.1,0.1c0.4,0,0.8-0.1,1.1-0.2c0.3-0.1,0.6-0.3,0.8-0.5c0.2-0.2,0.3-0.5,0.3-0.8
				c0-0.3-0.1-0.5-0.2-0.6s-0.3-0.3-0.5-0.3c-0.2-0.1-0.4-0.1-0.6-0.2c-0.2,0-0.4-0.1-0.6-0.1c-0.2,0-0.3-0.1-0.5-0.2
				c-0.1-0.1-0.2-0.2-0.2-0.3C174,179.3,174.1,179.2,174.3,179.1z"/>
			<path class="st1" d="M178.9,176.1c-0.2,0-0.4,0.1-0.5,0.2c-0.1,0.1-0.2,0.3-0.2,0.5c0,0.2,0.1,0.3,0.2,0.4
				c0.1,0.1,0.3,0.2,0.5,0.2c0.2,0,0.4-0.1,0.5-0.2c0.1-0.1,0.2-0.3,0.2-0.5c0-0.1-0.1-0.3-0.2-0.4
				C179.3,176.1,179.1,176.1,178.9,176.1z"/>
			<polygon class="st1" points="177.2,182.7 178.2,182.7 179.1,178.1 178.1,178.1 			"/>
			<path class="st1" d="M183.9,178.1l-0.1,0.7c-0.1-0.2-0.3-0.4-0.6-0.5c-0.3-0.1-0.6-0.2-1-0.2c-0.4,0-0.7,0.1-1,0.2
				c-0.3,0.1-0.6,0.3-0.8,0.6c-0.2,0.2-0.4,0.5-0.6,0.8c-0.1,0.3-0.2,0.7-0.2,1.1c0,0.4,0.1,0.8,0.3,1.1c0.2,0.3,0.4,0.5,0.7,0.7
				c0.3,0.1,0.6,0.2,1,0.2c0.5,0,0.9-0.1,1.2-0.3c0.1-0.1,0.1-0.1,0.2-0.2l-0.1,0.5h1l0.9-4.5H183.9L183.9,178.1z M182.7,181.6
				c-0.2,0.1-0.5,0.2-0.8,0.2c-0.4,0-0.7-0.1-0.9-0.3c-0.2-0.2-0.3-0.5-0.3-0.8s0.1-0.6,0.2-0.9c0.1-0.3,0.3-0.5,0.6-0.6
				c0.2-0.1,0.5-0.2,0.8-0.2c0.4,0,0.7,0.1,0.9,0.3c0.2,0.2,0.3,0.5,0.3,0.8c0,0.3-0.1,0.6-0.2,0.9
				C183.2,181.3,183,181.5,182.7,181.6z"/>
		</g>
	</g>
</g>
</svg>
