<?xml version="1.0" encoding="utf-8"?>
<!-- Generator: Adobe Illustrator 25.4.1, SVG Export Plug-In . SVG Version: 6.00 Build 0)  -->
<svg version="1.1" id="Layer_1" xmlns="http://www.w3.org/2000/svg" xmlns:xlink="http://www.w3.org/1999/xlink" x="0px" y="0px"
	 viewBox="0 0 841.9 595.3" style="enable-background:new 0 0 841.9 595.3;" xml:space="preserve">
<style type="text/css">
	.st0{fill:url(#SVGID_1_);}
	.st1{fill:url(#SVGID_00000164483279965021153010000003261149386241406645_);}
	.st2{fill:url(#SVGID_00000135650132369010452800000014234443508731966652_);}
	.st3{fill:url(#SVGID_00000177451785525268689760000007787772303307201723_);}
	.st4{fill:url(#SVGID_00000075155945985565885730000016749511903678947724_);}
	.st5{fill:url(#SVGID_00000176020972427441545870000001416856171789488804_);}
	.st6{fill:url(#SVGID_00000020384838367219306410000003443725394623801481_);}
	.st7{fill:url(#SVGID_00000096038697521459114720000001997558173208757686_);}
	.st8{fill:url(#SVGID_00000138541820951504141730000001434289900638210956_);}
	.st9{fill:url(#SVGID_00000163063532584025382150000003129734453720155308_);}
	.st10{fill:url(#SVGID_00000161622597740084628950000008440744274878577043_);}
	.st11{fill:url(#SVGID_00000157293843693201555080000002239437383522134425_);}
	.st12{fill:url(#SVGID_00000028295996900280443390000014028149709601896088_);}
	.st13{fill:url(#SVGID_00000155859139645188248990000000097539778856369321_);}
	.st14{fill:#333131;}
	.st15{fill:url(#SVGID_00000080887821348096176160000007421489892428541855_);}
	.st16{fill:#CAA24D;}
	.st17{fill:url(#SVGID_00000041268742377312047210000000010666277701428909_);}
	.st18{fill:url(#SVGID_00000054967911635316334740000000873878428172414641_);}
	.st19{fill:url(#SVGID_00000021829362288969927550000000867976970868692406_);}
	.st20{fill:url(#SVGID_00000029016486876090011110000011249760669957360788_);}
	.st21{fill:url(#SVGID_00000075145869358611444090000012809309438012551863_);}
	.st22{fill:url(#SVGID_00000063611089218218087110000001285482206337308802_);}
	.st23{fill:url(#SVGID_00000018930860894868582010000002281271702384804994_);}
	.st24{fill:url(#SVGID_00000059994967189247666270000015903457752986733745_);}
	.st25{fill:url(#SVGID_00000161596728819867024940000010793878617232876164_);}
	.st26{fill:url(#SVGID_00000119805310113273087550000007591815406241309851_);}
	.st27{fill:url(#SVGID_00000062154473505783630420000001590592638294863776_);}
	.st28{fill:url(#SVGID_00000054233886385691195190000018142805164894000259_);}
	.st29{fill:url(#SVGID_00000126320139107981816170000003540409883401500844_);}
	.st30{fill:url(#SVGID_00000054976297830174444320000015640106766929222058_);}
	.st31{fill:url(#SVGID_00000107548992709562885990000011146229265678458801_);}
	.st32{fill:#1B2F4D;}
	.st33{font-family:'WildMango-Regular';}
	.st34{font-size:21px;}
	.st35{font-family:'Roboto-Regular';}
	.st36{font-size:14px;}
	.st37{font-size:12px;}
	.st38{font-family:'Roboto-SemiBold';}
	.st39{font-size:18px;}
	.st40{font-family:'Roboto-LightItalic';}
</style>
<g>
	<g>
		
			<linearGradient id="SVGID_1_" gradientUnits="userSpaceOnUse" x1="187.8314" y1="552.8034" x2="219.5618" y2="552.8034" gradientTransform="matrix(-1 0 0 -1 1029.7213 595.2756)">
			<stop  offset="0" style="stop-color:#1B2F4D"/>
			<stop  offset="0.6816" style="stop-color:#2A507F"/>
		</linearGradient>
		<path class="st0" d="M810.2,29.8c0-4.3,2.7-8.6,6.5-10.2c4.4-1.8,8.7-1.3,12.1,2c4.4,4.3,8.7,8.6,13.1,12.9v31.8
			c-6.3-6.4-12.5-12.8-18.8-19.1c-2.8-2.8-5.8-5.5-8.6-8.3C811.9,36.5,810.2,33.5,810.2,29.8z"/>
		
			<linearGradient id="SVGID_00000162351830317223052600000010836727911792600992_" gradientUnits="userSpaceOnUse" x1="268.1416" y1="581.2062" x2="313.1314" y2="581.2062" gradientTransform="matrix(-1 0 0 -1 1029.7213 595.2756)">
			<stop  offset="0" style="stop-color:#1B2F4D"/>
			<stop  offset="0.6816" style="stop-color:#2A507F"/>
		</linearGradient>
		<path style="fill:url(#SVGID_00000162351830317223052600000010836727911792600992_);" d="M716.6,0h34c2.4,2.4,4.8,4.9,7.2,7.3
			c2.4,2.4,4,5.3,3.8,7.8c-0.1,6-2.5,9.6-6.7,11.7c-4.4,2.2-8.7,1.7-12.5-1.5c-1.2-1-2.4-2.1-3.5-3.2C731.4,14.8,724,7.4,716.6,0z"
			/>
		
			<linearGradient id="SVGID_00000147923806520432413800000007403381376476119721_" gradientUnits="userSpaceOnUse" x1="246.4302" y1="517.0374" x2="301.5534" y2="517.0374" gradientTransform="matrix(-1 0 0 -1 1029.7213 595.2756)">
			<stop  offset="0" style="stop-color:#1B2F4D"/>
			<stop  offset="0.6816" style="stop-color:#2A507F"/>
		</linearGradient>
		<path style="fill:url(#SVGID_00000147923806520432413800000007403381376476119721_);" d="M728.2,63.1c0.7-5.2,2.8-9,7.5-11.1
			c5-2.2,9.7-1.2,13.5,2.5c10.1,9.9,20.1,20,30.1,30.1c3.6,3.6,4.9,7.8,3.4,12.9c-2.3,7.7-13.1,10.8-18.9,5.1
			c-4.4-4.2-8.6-8.6-12.9-12.8c-5.4-5.3-10.9-10.6-16.3-15.9c-1.4-1.4-2.8-2.7-3.8-4.3C729.7,67.6,729,65.3,728.2,63.1z"/>
		
			<linearGradient id="SVGID_00000048466406513842626860000005584632777073909695_" gradientUnits="userSpaceOnUse" x1="229.302" y1="589.6159" x2="253.9115" y2="589.6159" gradientTransform="matrix(-1 0 0 -1 1029.7213 595.2756)">
			<stop  offset="0" style="stop-color:#936F35"/>
			<stop  offset="0.6816" style="stop-color:#CAA24D"/>
		</linearGradient>
		<path style="fill:url(#SVGID_00000048466406513842626860000005584632777073909695_);" d="M775.8,0h24.6c-1.8,1.8-3.5,3.5-5.3,5.3
			c-1.9,2-4.2,3.6-7.1,6c-3-2.7-6-5-8.5-7.6C778.3,2.5,777,1.2,775.8,0z"/>
		
			<linearGradient id="SVGID_00000029739260030273254130000011653663017024785553_" gradientUnits="userSpaceOnUse" x1="208.5526" y1="525.8472" x2="244.5468" y2="525.8472" gradientTransform="matrix(-1 0 0 -1 1029.7213 595.2756)">
			<stop  offset="0" style="stop-color:#936F35"/>
			<stop  offset="0.6816" style="stop-color:#CAA24D"/>
		</linearGradient>
		<path style="fill:url(#SVGID_00000029739260030273254130000011653663017024785553_);" d="M801.2,51.4c0.5,0.3,1,0.6,1.3,1
			c6,6,12,12,18,18c1,1,0.8,1.7-0.1,2.6c-4.6,4.6-9.2,9.1-13.7,13.7c-1.1,1.2-2,1-3.1-0.1c-5.9-5.9-11.8-11.8-17.7-17.7
			c-1-1-0.9-1.6,0-2.5c4.7-4.6,9.3-9.2,13.9-13.9C800.2,52.1,800.6,51.8,801.2,51.4z"/>
		
			<linearGradient id="SVGID_00000096034282879367074730000017172092777285670044_" gradientUnits="userSpaceOnUse" x1="187.8314" y1="586.3706" x2="206.6414" y2="586.3706" gradientTransform="matrix(-1 0 0 -1 1029.7213 595.2756)">
			<stop  offset="0" style="stop-color:#936F35"/>
			<stop  offset="0.6816" style="stop-color:#CAA24D"/>
		</linearGradient>
		<path style="fill:url(#SVGID_00000096034282879367074730000017172092777285670044_);" d="M823.1,0h18.8v17.3
			c-0.2,0.2-0.4,0.3-0.7,0.5c-0.6-0.5-1.1-0.8-1.6-1.2c-5.4-5.4-10.7-10.7-16.1-16.1C823.4,0.4,823.2,0.2,823.1,0z"/>
		
			<linearGradient id="SVGID_00000178912670099370621690000014659970533406523777_" gradientUnits="userSpaceOnUse" x1="187.8314" y1="499.0493" x2="214.308" y2="499.0493" gradientTransform="matrix(-1 0 0 -1 1029.7213 595.2756)">
			<stop  offset="0" style="stop-color:#936F35"/>
			<stop  offset="0.6816" style="stop-color:#CAA24D"/>
		</linearGradient>
		<path style="fill:url(#SVGID_00000178912670099370621690000014659970533406523777_);" d="M816.2,93.6c3.7-3.7,7.3-7.5,11-11.2
			c0.3-0.3,0.8-0.5,1.2-0.9c0.5,0.4,1,0.8,1.5,1.2c4,4,7.9,7.9,11.9,11.9v6.5c-3.1,3-6.1,6-9.1,9.1c-1,1-1.8,0.9-2.8-0.1
			c-4.6-4.7-9.2-9.3-13.9-13.9C815.1,95.2,815.2,94.6,816.2,93.6z"/>
		
			<linearGradient id="SVGID_00000090274720588275649380000007435903453939561130_" gradientUnits="userSpaceOnUse" x1="241.7262" y1="552.4212" x2="264.9527" y2="552.4212" gradientTransform="matrix(-1 0 0 -1 1029.7213 595.2756)">
			<stop  offset="0" style="stop-color:#1B2F4D"/>
			<stop  offset="0.6816" style="stop-color:#2A507F"/>
		</linearGradient>
		<path style="fill:url(#SVGID_00000090274720588275649380000007435903453939561130_);" d="M764.8,42.7c0-6.4,5.3-11.6,11.7-11.5
			c6.6,0.1,11.6,5.2,11.6,11.8c0,6.5-5.3,11.8-11.7,11.7C769.8,54.5,764.7,49.2,764.8,42.7z"/>
		
			<linearGradient id="SVGID_00000055695776014746485760000005116257344545812366_" gradientUnits="userSpaceOnUse" x1="304.3198" y1="559.7185" x2="327.8384" y2="559.7185" gradientTransform="matrix(-1 0 0 -1 1029.7213 595.2756)">
			<stop  offset="0" style="stop-color:#1B2F4D"/>
			<stop  offset="0.6816" style="stop-color:#2A507F"/>
		</linearGradient>
		<path style="fill:url(#SVGID_00000055695776014746485760000005116257344545812366_);" d="M713.6,47.2c-6.6,0-11.7-5.1-11.7-11.6
			c0-6.3,5.5-11.7,11.9-11.6c6.3,0,11.7,5.5,11.7,11.6C725.4,42.1,720.2,47.2,713.6,47.2z"/>
		
			<linearGradient id="SVGID_00000021810019095047532290000009167873387018997436_" gradientUnits="userSpaceOnUse" x1="226.8562" y1="478.1612" x2="242.5309" y2="478.1612" gradientTransform="matrix(-1 0 0 -1 1029.7213 595.2756)">
			<stop  offset="0" style="stop-color:#1B2F4D"/>
			<stop  offset="0.6816" style="stop-color:#2A507F"/>
		</linearGradient>
		<path style="fill:url(#SVGID_00000021810019095047532290000009167873387018997436_);" d="M787.2,117.2c0-4.2,3.5-7.8,7.7-7.9
			c4.2-0.1,8,3.6,7.9,7.7c0,4.2-3.6,7.9-7.7,8C791.2,125,787.2,121.1,787.2,117.2z"/>
		
			<linearGradient id="SVGID_00000017482168321534084030000014937629446815199652_" gradientUnits="userSpaceOnUse" x1="330.1468" y1="581.1477" x2="344.9533" y2="581.1477" gradientTransform="matrix(-1 0 0 -1 1029.7213 595.2756)">
			<stop  offset="0" style="stop-color:#1B2F4D"/>
			<stop  offset="0.6816" style="stop-color:#2A507F"/>
		</linearGradient>
		<path style="fill:url(#SVGID_00000017482168321534084030000014937629446815199652_);" d="M684.8,14.2c0.2-0.4,0.5-0.8,0.8-1.1
			c1.8-1.9,3.7-3.7,5.5-5.6c0.8-0.8,1.4-1,2.3-0.1c1.8,1.9,3.7,3.7,5.6,5.6c0.9,0.9,0.8,1.7,0,2.5c-1.9,1.8-3.7,3.7-5.6,5.5
			c-0.4,0.3-1.4,0.5-1.7,0.2c-2.2-2.1-4.3-4.2-6.5-6.4C685,14.7,684.9,14.5,684.8,14.2z"/>
	</g>
	<g>
		
			<linearGradient id="SVGID_00000155864756524342563520000017951825230884719799_" gradientUnits="userSpaceOnUse" x1="187.9123" y1="38.4093" x2="461.5592" y2="-10.0187" gradientTransform="matrix(-1 0 0 -1 1029.7213 595.2756)">
			<stop  offset="0" style="stop-color:#1B2F4D"/>
			<stop  offset="0.6816" style="stop-color:#2A507F"/>
		</linearGradient>
		<polygon style="fill:url(#SVGID_00000155864756524342563520000017951825230884719799_);" points="841.9,595.3 841.9,518.4 
			563.9,595.3 		"/>
		
			<linearGradient id="SVGID_00000150797393423547389210000004274114187191215802_" gradientUnits="userSpaceOnUse" x1="182.2718" y1="121.4217" x2="331.84" y2="94.9522" gradientTransform="matrix(-1 0 0 -1 1029.7213 595.2756)">
			<stop  offset="0" style="stop-color:#1B2F4D"/>
			<stop  offset="0.6816" style="stop-color:#2A507F"/>
		</linearGradient>
		<polygon style="fill:url(#SVGID_00000150797393423547389210000004274114187191215802_);" points="841.9,507.2 841.9,421.2 
			705.8,552.6 		"/>
		
			<linearGradient id="SVGID_00000072276334238759388070000004585748739403097993_" gradientUnits="userSpaceOnUse" x1="180.7234" y1="143.8459" x2="321.3497" y2="107.8316" gradientTransform="matrix(-1 0 0 -1 1029.7213 595.2756)">
			<stop  offset="0.3184" style="stop-color:#CAA24D"/>
			<stop  offset="1" style="stop-color:#936F35"/>
		</linearGradient>
		<polygon style="fill:url(#SVGID_00000072276334238759388070000004585748739403097993_);" points="719.9,539.9 841.9,397.8 
			841.9,421.2 		"/>
		<polygon class="st14" points="659.9,565.8 841.9,481.3 841.9,500.9 		"/>
		
			<linearGradient id="SVGID_00000150812675143963862720000002006374605723635391_" gradientUnits="userSpaceOnUse" x1="194.5695" y1="81.6434" x2="406.6719" y2="27.3242" gradientTransform="matrix(-1 0 0 -1 1029.7213 595.2756)">
			<stop  offset="0" style="stop-color:#936F35"/>
			<stop  offset="0.6816" style="stop-color:#CAA24D"/>
		</linearGradient>
		<polygon style="fill:url(#SVGID_00000150812675143963862720000002006374605723635391_);" points="622.9,579 841.9,500.9 
			841.9,518.4 		"/>
		<g>
			<path class="st16" d="M811.9,576.6c1.3,0,2.4-1.1,2.4-2.4c0-1.3-1.1-2.4-2.4-2.4s-2.4,1.1-2.4,2.4
				C809.6,575.5,810.6,576.6,811.9,576.6z"/>
			<path class="st16" d="M805.3,576.6c1.3,0,2.4-1.1,2.4-2.4c0-1.3-1.1-2.4-2.4-2.4c-1.3,0-2.4,1.1-2.4,2.4
				C803,575.5,804,576.6,805.3,576.6z"/>
			<path class="st16" d="M798.7,576.6c1.3,0,2.4-1.1,2.4-2.4c0-1.3-1.1-2.4-2.4-2.4c-1.3,0-2.4,1.1-2.4,2.4
				C796.3,575.5,797.4,576.6,798.7,576.6z"/>
			<circle class="st16" cx="792.1" cy="574.2" r="2.4"/>
			<path class="st16" d="M811.9,569.6c1.3,0,2.4-1.1,2.4-2.4c0-1.3-1.1-2.4-2.4-2.4s-2.4,1.1-2.4,2.4
				C809.6,568.6,810.6,569.6,811.9,569.6z"/>
			<path class="st16" d="M805.3,569.6c1.3,0,2.4-1.1,2.4-2.4c0-1.3-1.1-2.4-2.4-2.4c-1.3,0-2.4,1.1-2.4,2.4
				C803,568.6,804,569.6,805.3,569.6z"/>
			<path class="st16" d="M798.7,569.6c1.3,0,2.4-1.1,2.4-2.4c0-1.3-1.1-2.4-2.4-2.4c-1.3,0-2.4,1.1-2.4,2.4
				C796.3,568.6,797.4,569.6,798.7,569.6z"/>
			<circle class="st16" cx="792.1" cy="567.2" r="2.4"/>
		</g>
	</g>
</g>
<g>
	<g>
		
			<linearGradient id="SVGID_00000178896789414739109330000007487552837800627346_" gradientUnits="userSpaceOnUse" x1="902.3476" y1="552.8034" x2="934.078" y2="552.8034" gradientTransform="matrix(1 0 0 1 -902.3476 0)">
			<stop  offset="0" style="stop-color:#1B2F4D"/>
			<stop  offset="0.6816" style="stop-color:#2A507F"/>
		</linearGradient>
		<path style="fill:url(#SVGID_00000178896789414739109330000007487552837800627346_);" d="M31.7,565.5c0,4.3-2.7,8.6-6.5,10.2
			c-4.4,1.8-8.7,1.3-12.1-2c-4.4-4.3-8.7-8.6-13.1-12.9v-31.8c6.3,6.4,12.5,12.8,18.8,19.1c2.8,2.8,5.8,5.5,8.6,8.3
			C30,558.8,31.7,561.8,31.7,565.5z"/>
		
			<linearGradient id="SVGID_00000010279575841817498410000006151653245490203781_" gradientUnits="userSpaceOnUse" x1="982.6578" y1="581.2062" x2="1027.6476" y2="581.2062" gradientTransform="matrix(1 0 0 1 -902.3476 0)">
			<stop  offset="0" style="stop-color:#1B2F4D"/>
			<stop  offset="0.6816" style="stop-color:#2A507F"/>
		</linearGradient>
		<path style="fill:url(#SVGID_00000010279575841817498410000006151653245490203781_);" d="M125.3,595.3h-34
			c-2.4-2.4-4.8-4.9-7.2-7.3c-2.4-2.4-4-5.3-3.8-7.8c0.1-6,2.5-9.6,6.7-11.7c4.4-2.2,8.7-1.7,12.5,1.5c1.2,1,2.4,2.1,3.5,3.2
			C110.5,580.5,117.9,587.9,125.3,595.3z"/>
		
			<linearGradient id="SVGID_00000118387516312902062360000011508601322455503289_" gradientUnits="userSpaceOnUse" x1="960.9464" y1="517.0374" x2="1016.0696" y2="517.0374" gradientTransform="matrix(1 0 0 1 -902.3476 0)">
			<stop  offset="0" style="stop-color:#1B2F4D"/>
			<stop  offset="0.6816" style="stop-color:#2A507F"/>
		</linearGradient>
		<path style="fill:url(#SVGID_00000118387516312902062360000011508601322455503289_);" d="M113.7,532.2c-0.7,5.2-2.8,9-7.5,11.1
			c-5,2.2-9.7,1.2-13.5-2.5c-10.1-9.9-20.1-20-30.1-30.1c-3.6-3.6-4.9-7.8-3.4-12.9c2.3-7.7,13.1-10.8,18.9-5.1
			c4.4,4.2,8.6,8.6,12.9,12.8c5.4,5.3,10.9,10.6,16.3,15.9c1.4,1.4,2.8,2.7,3.8,4.3C112.2,527.7,112.8,530,113.7,532.2z"/>
		
			<linearGradient id="SVGID_00000106865963360711678280000014379500427066536881_" gradientUnits="userSpaceOnUse" x1="943.8182" y1="589.6159" x2="968.4276" y2="589.6159" gradientTransform="matrix(1 0 0 1 -902.3476 0)">
			<stop  offset="0" style="stop-color:#936F35"/>
			<stop  offset="0.6816" style="stop-color:#CAA24D"/>
		</linearGradient>
		<path style="fill:url(#SVGID_00000106865963360711678280000014379500427066536881_);" d="M66.1,595.3H41.5
			c1.8-1.8,3.5-3.5,5.3-5.3c1.9-2,4.2-3.6,7.1-6c3,2.7,6,5,8.5,7.6C63.6,592.8,64.9,594.1,66.1,595.3z"/>
		
			<linearGradient id="SVGID_00000039812073367593907340000011359410429287793836_" gradientUnits="userSpaceOnUse" x1="923.0688" y1="525.8472" x2="959.0629" y2="525.8472" gradientTransform="matrix(1 0 0 1 -902.3476 0)">
			<stop  offset="0" style="stop-color:#936F35"/>
			<stop  offset="0.6816" style="stop-color:#CAA24D"/>
		</linearGradient>
		<path style="fill:url(#SVGID_00000039812073367593907340000011359410429287793836_);" d="M40.7,543.9c-0.5-0.3-1-0.6-1.3-1
			c-6-6-12-12-18-18c-1-1-0.8-1.7,0.1-2.6c4.6-4.6,9.2-9.1,13.7-13.7c1.1-1.2,2-1,3.1,0.1c5.9,5.9,11.8,11.8,17.7,17.7
			c1,1,0.9,1.6,0,2.5c-4.7,4.6-9.3,9.2-13.9,13.9C41.7,543.1,41.3,543.5,40.7,543.9z"/>
		
			<linearGradient id="SVGID_00000048463167925343013370000009207305426914894517_" gradientUnits="userSpaceOnUse" x1="902.3476" y1="586.3706" x2="921.1576" y2="586.3706" gradientTransform="matrix(1 0 0 1 -902.3476 0)">
			<stop  offset="0" style="stop-color:#936F35"/>
			<stop  offset="0.6816" style="stop-color:#CAA24D"/>
		</linearGradient>
		<path style="fill:url(#SVGID_00000048463167925343013370000009207305426914894517_);" d="M18.8,595.3H0V578
			c0.2-0.2,0.4-0.3,0.7-0.5c0.6,0.5,1.1,0.8,1.6,1.2c5.4,5.4,10.7,10.7,16.1,16.1C18.5,594.9,18.7,595.1,18.8,595.3z"/>
		
			<linearGradient id="SVGID_00000067226547040544304360000008193566638421389737_" gradientUnits="userSpaceOnUse" x1="902.3476" y1="499.0493" x2="928.8242" y2="499.0493" gradientTransform="matrix(1 0 0 1 -902.3476 0)">
			<stop  offset="0" style="stop-color:#936F35"/>
			<stop  offset="0.6816" style="stop-color:#CAA24D"/>
		</linearGradient>
		<path style="fill:url(#SVGID_00000067226547040544304360000008193566638421389737_);" d="M25.7,501.7c-3.7,3.7-7.3,7.5-11,11.2
			c-0.3,0.3-0.8,0.5-1.2,0.9c-0.5-0.4-1-0.8-1.5-1.2c-4-4-7.9-7.9-11.9-11.9v-6.5c3.1-3,6.1-6,9.1-9.1c1-1,1.8-0.9,2.8,0.1
			c4.6,4.7,9.2,9.3,13.9,13.9C26.8,500.1,26.6,500.7,25.7,501.7z"/>
		
			<linearGradient id="SVGID_00000130633096840386338610000006030394263512512418_" gradientUnits="userSpaceOnUse" x1="956.2424" y1="552.4212" x2="979.4688" y2="552.4212" gradientTransform="matrix(1 0 0 1 -902.3476 0)">
			<stop  offset="0" style="stop-color:#1B2F4D"/>
			<stop  offset="0.6816" style="stop-color:#2A507F"/>
		</linearGradient>
		<path style="fill:url(#SVGID_00000130633096840386338610000006030394263512512418_);" d="M77.1,552.6c0,6.4-5.3,11.6-11.7,11.5
			c-6.6-0.1-11.6-5.2-11.6-11.8c0-6.5,5.3-11.8,11.7-11.7C72.1,540.7,77.2,546,77.1,552.6z"/>
		
			<linearGradient id="SVGID_00000011023240842316937470000015108294352126199195_" gradientUnits="userSpaceOnUse" x1="1018.8359" y1="559.7185" x2="1042.3545" y2="559.7185" gradientTransform="matrix(1 0 0 1 -902.3476 0)">
			<stop  offset="0" style="stop-color:#1B2F4D"/>
			<stop  offset="0.6816" style="stop-color:#2A507F"/>
		</linearGradient>
		<path style="fill:url(#SVGID_00000011023240842316937470000015108294352126199195_);" d="M128.3,548.1c6.6,0,11.7,5.1,11.7,11.6
			c0,6.3-5.5,11.7-11.9,11.6c-6.3,0-11.7-5.5-11.7-11.6C116.5,553.1,121.7,548.1,128.3,548.1z"/>
		
			<linearGradient id="SVGID_00000057136267349828125100000010017264243811642248_" gradientUnits="userSpaceOnUse" x1="941.3724" y1="478.1612" x2="957.0471" y2="478.1612" gradientTransform="matrix(1 0 0 1 -902.3476 0)">
			<stop  offset="0" style="stop-color:#1B2F4D"/>
			<stop  offset="0.6816" style="stop-color:#2A507F"/>
		</linearGradient>
		<path style="fill:url(#SVGID_00000057136267349828125100000010017264243811642248_);" d="M54.7,478.1c0,4.2-3.5,7.8-7.7,7.9
			c-4.2,0.1-8-3.6-7.9-7.7c0-4.2,3.6-7.9,7.7-8C50.7,470.2,54.7,474.2,54.7,478.1z"/>
		
			<linearGradient id="SVGID_00000139264511085875054430000017189112374646918546_" gradientUnits="userSpaceOnUse" x1="1044.663" y1="581.1477" x2="1059.4695" y2="581.1477" gradientTransform="matrix(1 0 0 1 -902.3476 0)">
			<stop  offset="0" style="stop-color:#1B2F4D"/>
			<stop  offset="0.6816" style="stop-color:#2A507F"/>
		</linearGradient>
		<path style="fill:url(#SVGID_00000139264511085875054430000017189112374646918546_);" d="M157.1,581.1c-0.2,0.4-0.5,0.8-0.8,1.1
			c-1.8,1.9-3.7,3.7-5.5,5.6c-0.8,0.8-1.4,1-2.3,0.1c-1.8-1.9-3.7-3.7-5.6-5.6c-0.9-0.9-0.8-1.7,0-2.5c1.9-1.8,3.7-3.7,5.6-5.5
			c0.4-0.3,1.4-0.5,1.7-0.2c2.2,2.1,4.3,4.2,6.5,6.4C156.9,580.6,157,580.8,157.1,581.1z"/>
	</g>
	<g>
		
			<linearGradient id="SVGID_00000091736355110030345160000001713758259064945087_" gradientUnits="userSpaceOnUse" x1="902.4285" y1="38.4093" x2="1176.0753" y2="-10.0187" gradientTransform="matrix(1 0 0 1 -902.3476 0)">
			<stop  offset="0" style="stop-color:#1B2F4D"/>
			<stop  offset="0.6816" style="stop-color:#2A507F"/>
		</linearGradient>
		<polygon style="fill:url(#SVGID_00000091736355110030345160000001713758259064945087_);" points="0,0 0,76.8 278,0 		"/>
		
			<linearGradient id="SVGID_00000121265951812683229840000005166913267802360749_" gradientUnits="userSpaceOnUse" x1="896.7879" y1="121.4217" x2="1046.3562" y2="94.9522" gradientTransform="matrix(1 0 0 1 -902.3476 0)">
			<stop  offset="0" style="stop-color:#1B2F4D"/>
			<stop  offset="0.6816" style="stop-color:#2A507F"/>
		</linearGradient>
		<polygon style="fill:url(#SVGID_00000121265951812683229840000005166913267802360749_);" points="0,88.1 0,174.1 136.1,42.7 		"/>
		
			<linearGradient id="SVGID_00000109740984784865764860000002508644187215834532_" gradientUnits="userSpaceOnUse" x1="895.2396" y1="143.8459" x2="1035.8658" y2="107.8316" gradientTransform="matrix(1 0 0 1 -902.3476 0)">
			<stop  offset="0.3184" style="stop-color:#CAA24D"/>
			<stop  offset="1" style="stop-color:#936F35"/>
		</linearGradient>
		<polygon style="fill:url(#SVGID_00000109740984784865764860000002508644187215834532_);" points="122,55.3 0,197.5 0,174.1 		"/>
		<polygon class="st14" points="182,29.5 0,114 0,94.4 		"/>
		
			<linearGradient id="SVGID_00000047751441952965648180000002996773168320274366_" gradientUnits="userSpaceOnUse" x1="909.0857" y1="81.6434" x2="1121.188" y2="27.3242" gradientTransform="matrix(1 0 0 1 -902.3476 0)">
			<stop  offset="0" style="stop-color:#936F35"/>
			<stop  offset="0.6816" style="stop-color:#CAA24D"/>
		</linearGradient>
		<polygon style="fill:url(#SVGID_00000047751441952965648180000002996773168320274366_);" points="218.9,16.3 0,94.4 0,76.8 		"/>
		<g>
			<path class="st16" d="M29.9,18.7c-1.3,0-2.4,1.1-2.4,2.4s1.1,2.4,2.4,2.4c1.3,0,2.4-1.1,2.4-2.4S31.3,18.7,29.9,18.7z"/>
			<path class="st16" d="M36.6,18.7c-1.3,0-2.4,1.1-2.4,2.4s1.1,2.4,2.4,2.4c1.3,0,2.4-1.1,2.4-2.4S37.9,18.7,36.6,18.7z"/>
			<path class="st16" d="M43.2,18.7c-1.3,0-2.4,1.1-2.4,2.4s1.1,2.4,2.4,2.4c1.3,0,2.4-1.1,2.4-2.4S44.5,18.7,43.2,18.7z"/>
			<circle class="st16" cx="49.8" cy="21.1" r="2.4"/>
			<path class="st16" d="M29.9,25.7c-1.3,0-2.4,1.1-2.4,2.4s1.1,2.4,2.4,2.4c1.3,0,2.4-1.1,2.4-2.4S31.3,25.7,29.9,25.7z"/>
			<path class="st16" d="M36.6,25.7c-1.3,0-2.4,1.1-2.4,2.4s1.1,2.4,2.4,2.4c1.3,0,2.4-1.1,2.4-2.4S37.9,25.7,36.6,25.7z"/>
			<path class="st16" d="M43.2,25.7c-1.3,0-2.4,1.1-2.4,2.4s1.1,2.4,2.4,2.4c1.3,0,2.4-1.1,2.4-2.4S44.5,25.7,43.2,25.7z"/>
			<circle class="st16" cx="49.8" cy="28" r="2.4"/>
		</g>
	</g>
</g>
<text transform="matrix(1 0 0 1 239.6226 176.9249)" class="st32 st33 st34">CERTIFICATE OF ACHIEVEMENT</text>
<g>
	<text transform="matrix(1 0 0 1 355.5286 233.5435)" class="st32 st35 st36">This is to certify that:</text>
</g>
<path class="st32" d="M551.7,274.2v-0.5h3.8l1.5-1.4h-4.1c-0.4,0.4-0.8,0.8-1.2,1.1v0h-85.4h-90.7h-85.4v0c-0.4-0.3-0.8-0.7-1.2-1.1
	h-4.1l1.5,1.4h3.8v0.5h-3.8l-1.5,1.4h4.1l0.1-0.1l1.1-1.1h85.4h90.7h85.4l1.1,1.1l0.1,0.1h4.1l-1.5-1.4H551.7z"/>
<g>
	<text transform="matrix(1 0 0 1 223.6366 295.4129)"><tspan x="0" y="0" class="st32 st35 st37"> has successfully completed the </tspan><tspan x="174.3" y="0" class="st32 st38 st37">TOEFL ITP Simulation</tspan><tspan x="292" y="0" class="st32 st35 st37"> Test on                    </tspan><tspan x="-53.5" y="14.4" class="st32 st35 st37">and achieved the following scores, demonstrating profciency in English as a foreign language.</tspan></text>
</g>
<g>
	<g>
		<g>
			<path class="st32" d="M617.1,345.2H224.8v-23.6h392.3V345.2z M225.3,344.7h391.3v-22.6H225.3V344.7z"/>
			<path class="st32" d="M617.1,368.2H224.8v-23.6h392.3V368.2z M225.3,367.7h391.3v-22.6H225.3V367.7z"/>
			<path class="st32" d="M617.1,391.3H224.8v-23.6h392.3V391.3z M225.3,390.8h391.3v-22.6H225.3V390.8z"/>
			<path class="st32" d="M617.1,414.3H224.8v-23.6h392.3V414.3z M225.3,413.8h391.3v-22.6H225.3V413.8z"/>
		</g>
	</g>
	<g>
		<text transform="matrix(1 0 0 1 236.1546 338.5501)"><tspan x="0" y="0" class="st32 st35 st37">Section I</tspan><tspan x="0" y="22" class="st32 st35 st37">Section II</tspan><tspan x="0" y="44" class="st32 st35 st37">Section III</tspan></text>
	</g>
	<g>
		<text transform="matrix(1 0 0 1 327.2854 406.4893)" class="st32 st38 st37">TOTAL SCORE</text>
	</g>
	<g>
		<text transform="matrix(1 0 0 1 323.6025 338.5501)"><tspan x="0" y="0" class="st32 st35 st37">Listening Comprehension</tspan><tspan x="0" y="22" class="st32 st35 st37">Structure &amp; Written Expression</tspan><tspan x="0" y="44" class="st32 st35 st37">Reading Comprehension</tspan></text>
	</g>
	<rect x="307.4" y="321.9" class="st32" width="0.5" height="69.2"/>
	<rect x="507.2" y="321.9" class="st32" width="0.5" height="92.2"/>
</g>
<g>
	<text transform="matrix(1 0 0 1 213.461 111.2167)"><tspan x="0" y="0" class="st32 st33 st39">DEPARTMENT OF LANGUAGE DEVELOPMENT</tspan><tspan x="101.8" y="21.6" class="st32 st33 st39">CORDOVA UNIVERSITY</tspan></text>
	<rect x="193.5" y="143.1" class="st32" width="454.8" height="1"/>
	<rect x="193.5" y="144.8" class="st32" width="454.8" height="0.4"/>
	<g>
		<g>
			<defs>
				<polygon id="SVGID_00000053546250882478098200000000272290256931337350_" points="480.6,40.6 485.9,45.9 493.5,45.9 493.5,53.4 
					498.7,58.7 493.4,64 493.5,71.5 485.9,71.5 480.6,76.8 475.4,71.5 467.8,71.5 467.8,64 462.6,58.7 467.8,53.4 467.8,45.9 
					475.3,45.9 				"/>
			</defs>
			<clipPath id="SVGID_00000048459395210083496100000003005236846188851119_">
				<use xlink:href="#SVGID_00000053546250882478098200000000272290256931337350_"  style="overflow:visible;"/>
			</clipPath>
			<g style="clip-path:url(#SVGID_00000048459395210083496100000003005236846188851119_);">
				
					<image style="overflow:visible;" width="1214" height="1214" xlink:href="../../../../../recovery/17-05-26/log cordova.jpg"  transform="matrix(2.979372e-02 0 0 2.979372e-02 462.5521 40.6342)">
				</image>
			</g>
		</g>
		<g>
			<g>
				<g>
					<g>
						<polygon class="st32" points="393.3,52.3 384.2,52.3 383.8,54.6 386.9,54.6 385.3,62.5 388.2,62.5 389.8,54.6 392.9,54.6 
													"/>
						<path class="st32" d="M401.7,52.7c-0.8-0.4-1.7-0.6-2.7-0.6c-0.9,0-1.8,0.2-2.6,0.5c-0.8,0.3-1.4,0.7-2,1.3
							c-0.6,0.5-1,1.2-1.3,1.9s-0.5,1.6-0.5,2.4s0.2,1.7,0.6,2.3c0.4,0.7,1,1.2,1.7,1.6c0.8,0.4,1.7,0.6,2.7,0.6
							c0.9,0,1.8-0.2,2.6-0.5c0.8-0.3,1.4-0.7,2-1.3c0.6-0.5,1-1.2,1.3-1.9c0.3-0.7,0.5-1.6,0.5-2.4s-0.2-1.7-0.6-2.3
							C403,53.6,402.5,53,401.7,52.7z M400.9,58.1c-0.1,0.4-0.4,0.8-0.6,1.1s-0.6,0.6-1,0.8c-0.4,0.2-0.8,0.3-1.3,0.3
							c-0.5,0-0.9-0.1-1.3-0.3c-0.4-0.2-0.6-0.5-0.8-0.8c-0.2-0.3-0.3-0.7-0.3-1.2c0-0.5,0.1-0.9,0.2-1.4s0.4-0.8,0.6-1.1
							s0.6-0.6,1-0.8c0.4-0.2,0.8-0.3,1.3-0.3c0.5,0,0.9,0.1,1.3,0.3c0.4,0.2,0.6,0.5,0.8,0.8c0.2,0.3,0.3,0.7,0.3,1.2
							C401.2,57.2,401.1,57.7,400.9,58.1z"/>
						<polygon class="st32" points="414,54.5 414.5,52.3 406.5,52.3 404.5,62.5 412.6,62.5 413.1,60.2 407.8,60.2 408.1,58.4 
							412.7,58.4 413.1,56.2 408.6,56.2 408.9,54.5 						"/>
						<polygon class="st32" points="418.7,54.5 423.8,54.5 424.2,52.3 416.3,52.3 414.2,62.5 417.1,62.5 417.8,59 422.3,59 
							422.7,56.7 418.3,56.7 						"/>
						<polygon class="st32" points="428.5,52.3 425.6,52.3 423.6,62.5 431.3,62.5 431.7,60.2 426.9,60.2 						"/>
						<path class="st32" d="M434.8,54.2c-0.3,0-0.5,0.1-0.7,0.3c-0.2,0.2-0.3,0.4-0.3,0.6c0,0.2,0.1,0.4,0.2,0.5
							c0.2,0.2,0.3,0.2,0.6,0.2c0.3,0,0.5-0.1,0.7-0.3c0.2-0.2,0.3-0.4,0.3-0.6c0-0.2-0.1-0.4-0.2-0.5
							C435.3,54.2,435.1,54.2,434.8,54.2z"/>
						<polygon class="st32" points="432.6,62.5 433.9,62.5 435.1,56.7 433.7,56.7 						"/>
						<path class="st32" d="M441.9,57.8c-0.1-0.4-0.4-0.7-0.7-0.9c-0.3-0.2-0.8-0.3-1.3-0.3s-0.9,0.1-1.4,0.3
							c-0.2,0.1-0.4,0.2-0.6,0.4l0.1-0.6h-1.3l-1.1,5.7h1.3l0.6-3c0.1-0.6,0.3-1,0.7-1.2c0.3-0.3,0.7-0.4,1.2-0.4
							c0.5,0,0.8,0.1,1,0.4s0.2,0.6,0.1,1.1l-0.6,3.1h1.3l0.6-3.2C442.1,58.7,442.1,58.2,441.9,57.8z"/>
					</g>
				</g>
				<g>
					<path class="st32" d="M384.2,67.8c-0.1,0.3-0.1,0.5-0.3,0.6c-0.1,0.1-0.3,0.2-0.5,0.2c-0.2,0-0.4-0.1-0.5-0.2s-0.1-0.3-0.1-0.6
						l0.3-1.5h-0.5l-0.3,1.5c-0.1,0.2,0,0.4,0,0.6c0.1,0.2,0.2,0.3,0.3,0.4c0.2,0.1,0.4,0.1,0.6,0.1c0.4,0,0.6-0.1,0.8-0.3
						s0.4-0.5,0.4-0.9l0.3-1.5h-0.5L384.2,67.8z"/>
					<path class="st32" d="M387,67.1c-0.1-0.1-0.3-0.1-0.4-0.1s-0.3,0-0.5,0.1c-0.1,0-0.2,0.1-0.2,0.1l0-0.2h-0.4l-0.4,2h0.5l0.2-1
						c0-0.2,0.1-0.3,0.2-0.4c0.1-0.1,0.3-0.1,0.4-0.1c0.2,0,0.3,0.1,0.3,0.1c0.1,0.1,0.1,0.2,0.1,0.4l-0.2,1.1h0.5l0.2-1.1
						c0-0.2,0-0.4,0-0.5C387.2,67.2,387.1,67.1,387,67.1z"/>
					<path class="st32" d="M388.4,66.1c-0.1,0-0.2,0-0.2,0.1c-0.1,0.1-0.1,0.1-0.1,0.2c0,0.1,0,0.1,0.1,0.2c0.1,0.1,0.1,0.1,0.2,0.1
						c0.1,0,0.2,0,0.2-0.1c0.1-0.1,0.1-0.1,0.1-0.2c0-0.1,0-0.1-0.1-0.2C388.6,66.1,388.5,66.1,388.4,66.1z"/>
					<polygon class="st32" points="387.6,69 388.1,69 388.5,67 388,67 					"/>
					<polygon class="st32" points="390.5,67 389.6,68.5 389.2,67 388.8,67 389.2,69 389.7,69 391,67 					"/>
					<path class="st32" d="M392.5,67.1c-0.1-0.1-0.3-0.1-0.5-0.1c-0.2,0-0.4,0.1-0.6,0.2c-0.2,0.1-0.3,0.2-0.4,0.4
						c-0.1,0.2-0.2,0.4-0.2,0.6c0,0.2,0,0.3,0.1,0.5c0.1,0.1,0.2,0.2,0.3,0.3c0.2,0.1,0.3,0.1,0.5,0.1c0.2,0,0.3,0,0.4-0.1
						c0.1-0.1,0.3-0.1,0.4-0.2l-0.2-0.3c-0.1,0.1-0.2,0.1-0.3,0.2c-0.1,0-0.2,0.1-0.3,0.1c-0.2,0-0.3,0-0.4-0.1s-0.1-0.2-0.1-0.4
						h1.6c0,0,0-0.1,0-0.1c0-0.1,0-0.1,0-0.1c0-0.2,0-0.3-0.1-0.5S392.6,67.1,392.5,67.1z M391.6,67.4c0.1-0.1,0.2-0.1,0.4-0.1
						c0.1,0,0.2,0,0.3,0.1c0.1,0.1,0.1,0.1,0.2,0.2c0,0.1,0,0.1,0,0.2h-1.1c0,0,0-0.1,0-0.1C391.4,67.6,391.5,67.5,391.6,67.4z"/>
					<path class="st32" d="M394.6,67.4l0.1-0.4c-0.2,0-0.4,0-0.5,0.1c-0.1,0-0.2,0.1-0.3,0.2L394,67h-0.4l-0.4,2h0.5l0.2-1
						c0-0.2,0.1-0.4,0.2-0.5c0.1-0.1,0.3-0.1,0.5-0.1C394.5,67.4,394.5,67.4,394.6,67.4C394.6,67.4,394.6,67.4,394.6,67.4z"/>
					<path class="st32" d="M395.4,67.4c0.1-0.1,0.2-0.1,0.3-0.1c0.1,0,0.2,0,0.3,0c0.1,0,0.2,0.1,0.3,0.1l0.2-0.4
						c-0.1-0.1-0.2-0.1-0.3-0.1c-0.1,0-0.3-0.1-0.4-0.1c-0.2,0-0.4,0-0.5,0.1c-0.1,0.1-0.3,0.1-0.3,0.2s-0.1,0.2-0.1,0.4
						c0,0.1,0,0.2,0.1,0.3c0.1,0.1,0.1,0.1,0.2,0.2c0.1,0,0.2,0.1,0.3,0.1c0.1,0,0.2,0,0.3,0.1c0.1,0,0.2,0,0.2,0.1s0.1,0.1,0.1,0.1
						c0,0.1,0,0.1-0.1,0.2s-0.2,0.1-0.3,0.1c-0.1,0-0.3,0-0.4-0.1c-0.1,0-0.2-0.1-0.3-0.1l-0.2,0.4c0.1,0.1,0.2,0.1,0.4,0.2
						c0.2,0,0.3,0.1,0.5,0.1c0.2,0,0.4,0,0.5-0.1c0.1-0.1,0.3-0.1,0.3-0.2c0.1-0.1,0.1-0.2,0.1-0.4c0-0.1,0-0.2-0.1-0.3
						c-0.1-0.1-0.1-0.1-0.2-0.2c-0.1,0-0.2-0.1-0.3-0.1s-0.2,0-0.3-0.1c-0.1,0-0.2,0-0.2-0.1c-0.1,0-0.1-0.1-0.1-0.1
						C395.2,67.5,395.3,67.4,395.4,67.4z"/>
					<polygon class="st32" points="396.6,69 397.1,69 397.5,67 397,67 					"/>
					<path class="st32" d="M397.4,66.1c-0.1,0-0.2,0-0.2,0.1c-0.1,0.1-0.1,0.1-0.1,0.2c0,0.1,0,0.1,0.1,0.2c0.1,0.1,0.1,0.1,0.2,0.1
						c0.1,0,0.2,0,0.2-0.1c0.1-0.1,0.1-0.1,0.1-0.2c0-0.1,0-0.1-0.1-0.2C397.5,66.1,397.5,66.1,397.4,66.1z"/>
					<path class="st32" d="M398.7,66.5h-0.5l-0.1,0.4h-0.3l-0.1,0.4h0.3l-0.2,0.9c0,0.1,0,0.3,0,0.4c0,0.1,0.1,0.2,0.2,0.2
						c0.1,0.1,0.2,0.1,0.3,0.1c0.1,0,0.2,0,0.3,0c0.1,0,0.2-0.1,0.2-0.1l-0.1-0.3c0,0-0.1,0-0.1,0.1c-0.1,0-0.1,0-0.1,0
						c-0.1,0-0.2,0-0.2-0.1c0-0.1-0.1-0.1,0-0.2l0.2-0.9h0.5l0.1-0.4h-0.5L398.7,66.5z"/>
					<path class="st32" d="M401,67.3c-0.1-0.1-0.1-0.2-0.2-0.2c-0.1-0.1-0.3-0.1-0.4-0.1c-0.2,0-0.3,0-0.4,0.1
						c-0.1,0.1-0.3,0.1-0.4,0.2s-0.2,0.2-0.2,0.4c-0.1,0.1-0.1,0.3-0.1,0.5c0,0.2,0,0.3,0.1,0.5c0.1,0.1,0.2,0.2,0.3,0.3
						c0.1,0.1,0.3,0.1,0.4,0.1c0.2,0,0.4-0.1,0.5-0.2c0,0,0.1-0.1,0.1-0.1l0,0.2h0.4l0.4-2h-0.5L401,67.3z M400.6,68.5
						c-0.1,0.1-0.2,0.1-0.4,0.1c-0.2,0-0.3-0.1-0.4-0.1c-0.1-0.1-0.1-0.2-0.1-0.4c0-0.2,0-0.3,0.1-0.4s0.1-0.2,0.2-0.3
						c0.1-0.1,0.2-0.1,0.4-0.1c0.2,0,0.3,0.1,0.4,0.1c0.1,0.1,0.1,0.2,0.1,0.4c0,0.2,0,0.3-0.1,0.4
						C400.8,68.4,400.7,68.4,400.6,68.5z"/>
					<path class="st32" d="M402.4,67.4c0.1-0.1,0.2-0.1,0.3-0.1c0.1,0,0.2,0,0.3,0s0.2,0.1,0.3,0.1l0.2-0.4
						c-0.1-0.1-0.2-0.1-0.3-0.1c-0.1,0-0.3-0.1-0.4-0.1c-0.2,0-0.4,0-0.5,0.1c-0.1,0.1-0.3,0.1-0.3,0.2c-0.1,0.1-0.1,0.2-0.1,0.4
						c0,0.1,0,0.2,0.1,0.3c0.1,0.1,0.1,0.1,0.2,0.2c0.1,0,0.2,0.1,0.3,0.1s0.2,0,0.3,0.1c0.1,0,0.2,0,0.2,0.1s0.1,0.1,0.1,0.1
						c0,0.1,0,0.1-0.1,0.2c-0.1,0.1-0.2,0.1-0.3,0.1c-0.1,0-0.3,0-0.4-0.1c-0.1,0-0.2-0.1-0.3-0.1l-0.2,0.4c0.1,0.1,0.2,0.1,0.4,0.2
						c0.2,0,0.3,0.1,0.5,0.1c0.2,0,0.4,0,0.5-0.1c0.1-0.1,0.3-0.1,0.3-0.2c0.1-0.1,0.1-0.2,0.1-0.4c0-0.1,0-0.2-0.1-0.3
						c-0.1-0.1-0.1-0.1-0.2-0.2c-0.1,0-0.2-0.1-0.3-0.1c-0.1,0-0.2,0-0.3-0.1c-0.1,0-0.2,0-0.2-0.1c-0.1,0-0.1-0.1-0.1-0.1
						C402.3,67.5,402.3,67.4,402.4,67.4z"/>
					<path class="st32" d="M406.5,68.5c-0.1,0.1-0.3,0.1-0.4,0.1c-0.2,0-0.3,0-0.4-0.1c-0.1-0.1-0.2-0.1-0.3-0.3
						c-0.1-0.1-0.1-0.2-0.1-0.4c0-0.2,0-0.3,0.1-0.4c0.1-0.1,0.1-0.3,0.2-0.4s0.2-0.2,0.3-0.2c0.1-0.1,0.3-0.1,0.5-0.1
						c0.2,0,0.3,0,0.4,0.1c0.1,0.1,0.2,0.1,0.3,0.2l0.4-0.3c-0.1-0.1-0.2-0.3-0.4-0.3c-0.2-0.1-0.4-0.1-0.6-0.1
						c-0.2,0-0.5,0-0.7,0.1c-0.2,0.1-0.4,0.2-0.5,0.3s-0.3,0.3-0.3,0.5c-0.1,0.2-0.1,0.4-0.1,0.6c0,0.2,0.1,0.4,0.2,0.6
						c0.1,0.2,0.2,0.3,0.4,0.4c0.2,0.1,0.4,0.1,0.7,0.1c0.2,0,0.4,0,0.6-0.1c0.2-0.1,0.3-0.2,0.5-0.3l-0.3-0.3
						C406.8,68.4,406.7,68.5,406.5,68.5z"/>
					<path class="st32" d="M409.1,67.1c-0.1-0.1-0.3-0.1-0.5-0.1c-0.2,0-0.4,0.1-0.6,0.2s-0.3,0.2-0.4,0.4c-0.1,0.2-0.2,0.4-0.2,0.6
						c0,0.2,0,0.3,0.1,0.5c0.1,0.1,0.2,0.2,0.3,0.3c0.1,0.1,0.3,0.1,0.5,0.1c0.2,0,0.4-0.1,0.6-0.2s0.3-0.2,0.4-0.4
						c0.1-0.2,0.2-0.4,0.2-0.6c0-0.2,0-0.3-0.1-0.5C409.3,67.2,409.2,67.1,409.1,67.1z M409,68.2c-0.1,0.1-0.1,0.2-0.2,0.3
						c-0.1,0.1-0.2,0.1-0.4,0.1c-0.2,0-0.3,0-0.4-0.1c-0.1-0.1-0.1-0.2-0.1-0.4c0-0.2,0-0.3,0.1-0.4c0.1-0.1,0.1-0.2,0.2-0.3
						c0.1-0.1,0.2-0.1,0.4-0.1c0.2,0,0.3,0.1,0.4,0.1c0.1,0.1,0.1,0.2,0.1,0.4C409,68,409,68.1,409,68.2z"/>
					<path class="st32" d="M410.8,67c-0.1,0-0.2,0.1-0.3,0.2l0.1-0.3h-0.4l-0.4,2h0.5l0.2-1c0-0.2,0.1-0.4,0.2-0.5
						c0.1-0.1,0.3-0.1,0.5-0.1c0,0,0,0,0.1,0c0,0,0,0,0.1,0l0.1-0.4C411.1,67,410.9,67,410.8,67z"/>
					<path class="st32" d="M413.1,67.3c-0.1-0.1-0.2-0.2-0.3-0.2c-0.1-0.1-0.3-0.1-0.4-0.1c-0.2,0-0.3,0-0.4,0.1s-0.3,0.1-0.4,0.2
						s-0.2,0.2-0.2,0.4c-0.1,0.1-0.1,0.3-0.1,0.5c0,0.2,0,0.3,0.1,0.5c0.1,0.1,0.2,0.2,0.3,0.3s0.3,0.1,0.4,0.1s0.3,0,0.4-0.1
						c0.1,0,0.1-0.1,0.2-0.1l0,0.2h0.4l0.6-2.8h-0.5L413.1,67.3z M412.7,68.5c-0.1,0.1-0.2,0.1-0.4,0.1c-0.2,0-0.3-0.1-0.4-0.1
						c-0.1-0.1-0.1-0.2-0.1-0.4c0-0.2,0-0.3,0.1-0.4s0.1-0.2,0.2-0.3c0.1-0.1,0.2-0.1,0.4-0.1c0.2,0,0.3,0.1,0.4,0.1
						s0.1,0.2,0.1,0.4c0,0.2,0,0.3-0.1,0.4S412.8,68.4,412.7,68.5z"/>
					<path class="st32" d="M415.5,67.1c-0.1-0.1-0.3-0.1-0.5-0.1c-0.2,0-0.4,0.1-0.6,0.2s-0.3,0.2-0.4,0.4c-0.1,0.2-0.2,0.4-0.2,0.6
						c0,0.2,0,0.3,0.1,0.5c0.1,0.1,0.2,0.2,0.3,0.3c0.1,0.1,0.3,0.1,0.5,0.1c0.2,0,0.4-0.1,0.6-0.2s0.3-0.2,0.4-0.4
						c0.1-0.2,0.2-0.4,0.2-0.6c0-0.2,0-0.3-0.1-0.5C415.8,67.2,415.7,67.1,415.5,67.1z M415.4,68.2c-0.1,0.1-0.1,0.2-0.2,0.3
						c-0.1,0.1-0.2,0.1-0.4,0.1c-0.2,0-0.3,0-0.4-0.1c-0.1-0.1-0.1-0.2-0.1-0.4c0-0.2,0-0.3,0.1-0.4c0.1-0.1,0.1-0.2,0.2-0.3
						c0.1-0.1,0.2-0.1,0.4-0.1c0.2,0,0.3,0.1,0.4,0.1c0.1,0.1,0.1,0.2,0.1,0.4C415.5,68,415.5,68.1,415.4,68.2z"/>
					<polygon class="st32" points="418,67 417.1,68.5 416.7,67 416.3,67 416.7,69 417.2,69 418.4,67 					"/>
					<path class="st32" d="M420.1,67.3c-0.1-0.1-0.1-0.2-0.2-0.2c-0.1-0.1-0.3-0.1-0.4-0.1c-0.2,0-0.3,0-0.4,0.1
						c-0.1,0.1-0.3,0.1-0.4,0.2c-0.1,0.1-0.2,0.2-0.2,0.4c-0.1,0.1-0.1,0.3-0.1,0.5c0,0.2,0,0.3,0.1,0.5c0.1,0.1,0.2,0.2,0.3,0.3
						c0.1,0.1,0.3,0.1,0.4,0.1c0.2,0,0.4-0.1,0.5-0.2c0,0,0.1-0.1,0.1-0.1l0,0.2h0.4l0.4-2h-0.5L420.1,67.3z M419.7,68.5
						c-0.1,0.1-0.2,0.1-0.4,0.1c-0.2,0-0.3-0.1-0.4-0.1c-0.1-0.1-0.1-0.2-0.1-0.4c0-0.2,0-0.3,0.1-0.4c0.1-0.1,0.1-0.2,0.2-0.3
						c0.1-0.1,0.2-0.1,0.4-0.1c0.2,0,0.3,0.1,0.4,0.1c0.1,0.1,0.1,0.2,0.1,0.4c0,0.2,0,0.3-0.1,0.4
						C419.8,68.4,419.8,68.4,419.7,68.5z"/>
					<polygon class="st32" points="421.9,69 422.4,69 422.9,66.4 422.4,66.4 					"/>
					<path class="st32" d="M425,67.1c-0.1-0.1-0.3-0.1-0.4-0.1s-0.3,0-0.5,0.1c-0.1,0-0.2,0.1-0.2,0.1l0-0.2h-0.4l-0.4,2h0.5l0.2-1
						c0-0.2,0.1-0.3,0.2-0.4c0.1-0.1,0.3-0.1,0.4-0.1c0.2,0,0.3,0.1,0.3,0.1c0.1,0.1,0.1,0.2,0.1,0.4l-0.2,1.1h0.5l0.2-1.1
						c0-0.2,0-0.4,0-0.5C425.2,67.2,425.1,67.1,425,67.1z"/>
					<path class="st32" d="M427.4,67.3c-0.1-0.1-0.2-0.2-0.3-0.2c-0.1-0.1-0.3-0.1-0.4-0.1c-0.2,0-0.3,0-0.4,0.1s-0.3,0.1-0.4,0.2
						s-0.2,0.2-0.2,0.4c-0.1,0.1-0.1,0.3-0.1,0.5c0,0.2,0,0.3,0.1,0.5c0.1,0.1,0.2,0.2,0.3,0.3c0.1,0.1,0.3,0.1,0.4,0.1
						c0.2,0,0.3,0,0.4-0.1c0.1,0,0.1-0.1,0.2-0.1l0,0.2h0.4l0.6-2.8h-0.5L427.4,67.3z M427,68.5c-0.1,0.1-0.2,0.1-0.4,0.1
						c-0.2,0-0.3-0.1-0.4-0.1c-0.1-0.1-0.1-0.2-0.1-0.4c0-0.2,0-0.3,0.1-0.4c0.1-0.1,0.1-0.2,0.2-0.3c0.1-0.1,0.2-0.1,0.4-0.1
						c0.2,0,0.3,0.1,0.4,0.1s0.1,0.2,0.1,0.4c0,0.2,0,0.3-0.1,0.4C427.2,68.4,427.1,68.4,427,68.5z"/>
					<path class="st32" d="M429.9,67.1c-0.1-0.1-0.3-0.1-0.5-0.1c-0.2,0-0.4,0.1-0.6,0.2c-0.2,0.1-0.3,0.2-0.4,0.4
						c-0.1,0.2-0.2,0.4-0.2,0.6c0,0.2,0,0.3,0.1,0.5c0.1,0.1,0.2,0.2,0.3,0.3c0.1,0.1,0.3,0.1,0.5,0.1c0.2,0,0.4-0.1,0.6-0.2
						s0.3-0.2,0.4-0.4c0.1-0.2,0.2-0.4,0.2-0.6c0-0.2,0-0.3-0.1-0.5C430.2,67.2,430,67.1,429.9,67.1z M429.8,68.2
						c-0.1,0.1-0.1,0.2-0.2,0.3c-0.1,0.1-0.2,0.1-0.4,0.1c-0.2,0-0.3,0-0.4-0.1c-0.1-0.1-0.1-0.2-0.1-0.4c0-0.2,0-0.3,0.1-0.4
						c0.1-0.1,0.1-0.2,0.2-0.3c0.1-0.1,0.2-0.1,0.4-0.1c0.2,0,0.3,0.1,0.4,0.1c0.1,0.1,0.1,0.2,0.1,0.4
						C429.9,68,429.9,68.1,429.8,68.2z"/>
					<path class="st32" d="M432.5,67.1c-0.1-0.1-0.3-0.1-0.4-0.1c-0.2,0-0.3,0-0.5,0.1c-0.1,0-0.2,0.1-0.2,0.1l0-0.2H431l-0.4,2h0.5
						l0.2-1c0-0.2,0.1-0.3,0.2-0.4c0.1-0.1,0.3-0.1,0.4-0.1c0.2,0,0.3,0.1,0.3,0.1c0.1,0.1,0.1,0.2,0.1,0.4l-0.2,1.1h0.5l0.2-1.1
						c0-0.2,0-0.4,0-0.5C432.7,67.2,432.6,67.1,432.5,67.1z"/>
					<path class="st32" d="M434.8,67.1c-0.1-0.1-0.3-0.1-0.5-0.1c-0.2,0-0.4,0.1-0.6,0.2c-0.2,0.1-0.3,0.2-0.4,0.4
						c-0.1,0.2-0.2,0.4-0.2,0.6c0,0.2,0,0.3,0.1,0.5c0.1,0.1,0.2,0.2,0.3,0.3c0.2,0.1,0.3,0.1,0.5,0.1c0.2,0,0.3,0,0.4-0.1
						c0.1-0.1,0.3-0.1,0.4-0.2l-0.2-0.3c-0.1,0.1-0.2,0.1-0.3,0.2c-0.1,0-0.2,0.1-0.3,0.1c-0.2,0-0.3,0-0.4-0.1s-0.1-0.2-0.1-0.4
						h1.6c0,0,0-0.1,0-0.1c0-0.1,0-0.1,0-0.1c0-0.2,0-0.3-0.1-0.5C435.1,67.2,434.9,67.1,434.8,67.1z M433.9,67.4
						c0.1-0.1,0.2-0.1,0.4-0.1c0.1,0,0.2,0,0.3,0.1c0.1,0.1,0.1,0.1,0.2,0.2c0,0.1,0,0.1,0,0.2h-1.1c0,0,0-0.1,0-0.1
						C433.7,67.6,433.8,67.5,433.9,67.4z"/>
					<path class="st32" d="M436.1,67.4c0.1-0.1,0.2-0.1,0.3-0.1c0.1,0,0.2,0,0.3,0s0.2,0.1,0.3,0.1l0.2-0.4
						c-0.1-0.1-0.2-0.1-0.3-0.1c-0.1,0-0.3-0.1-0.4-0.1c-0.2,0-0.4,0-0.5,0.1c-0.1,0.1-0.3,0.1-0.3,0.2s-0.1,0.2-0.1,0.4
						c0,0.1,0,0.2,0.1,0.3c0.1,0.1,0.1,0.1,0.2,0.2c0.1,0,0.2,0.1,0.3,0.1s0.2,0,0.3,0.1c0.1,0,0.2,0,0.2,0.1c0.1,0,0.1,0.1,0.1,0.1
						c0,0.1,0,0.1-0.1,0.2c-0.1,0.1-0.2,0.1-0.3,0.1c-0.1,0-0.3,0-0.4-0.1c-0.1,0-0.2-0.1-0.3-0.1l-0.2,0.4c0.1,0.1,0.2,0.1,0.4,0.2
						c0.2,0,0.3,0.1,0.5,0.1c0.2,0,0.4,0,0.5-0.1c0.1-0.1,0.3-0.1,0.3-0.2c0.1-0.1,0.1-0.2,0.1-0.4c0-0.1,0-0.2-0.1-0.3
						c-0.1-0.1-0.1-0.1-0.2-0.2c-0.1,0-0.2-0.1-0.3-0.1s-0.2,0-0.3-0.1c-0.1,0-0.2,0-0.2-0.1c-0.1,0-0.1-0.1-0.1-0.1
						C436,67.5,436,67.4,436.1,67.4z"/>
					<path class="st32" d="M438.1,66.1c-0.1,0-0.2,0-0.2,0.1c-0.1,0.1-0.1,0.1-0.1,0.2c0,0.1,0,0.1,0.1,0.2c0.1,0.1,0.1,0.1,0.2,0.1
						c0.1,0,0.2,0,0.2-0.1c0.1-0.1,0.1-0.1,0.1-0.2c0-0.1,0-0.1-0.1-0.2C438.3,66.1,438.2,66.1,438.1,66.1z"/>
					<polygon class="st32" points="437.4,69 437.8,69 438.2,67 437.8,67 					"/>
					<path class="st32" d="M440.3,67l-0.1,0.3c-0.1-0.1-0.1-0.2-0.2-0.2c-0.1-0.1-0.3-0.1-0.4-0.1c-0.2,0-0.3,0-0.4,0.1
						c-0.1,0.1-0.3,0.1-0.4,0.2c-0.1,0.1-0.2,0.2-0.2,0.4c-0.1,0.1-0.1,0.3-0.1,0.5c0,0.2,0,0.3,0.1,0.5c0.1,0.1,0.2,0.2,0.3,0.3
						c0.1,0.1,0.3,0.1,0.4,0.1c0.2,0,0.4-0.1,0.5-0.2c0,0,0.1-0.1,0.1-0.1l0,0.2h0.4l0.4-2L440.3,67L440.3,67z M439.8,68.5
						c-0.1,0.1-0.2,0.1-0.4,0.1c-0.2,0-0.3-0.1-0.4-0.1c-0.1-0.1-0.1-0.2-0.1-0.4c0-0.2,0-0.3,0.1-0.4c0.1-0.1,0.1-0.2,0.2-0.3
						c0.1-0.1,0.2-0.1,0.4-0.1c0.2,0,0.3,0.1,0.4,0.1c0.1,0.1,0.1,0.2,0.1,0.4c0,0.2,0,0.3-0.1,0.4C440,68.4,439.9,68.4,439.8,68.5z
						"/>
				</g>
				<g>
					<polygon class="st32" points="356.7,62.6 352.1,70.9 343.2,70.9 347.8,62.6 					"/>
					<polygon class="st32" points="380.7,54.2 376,62.6 371.4,70.9 362,70.9 357.4,62.6 357.1,62.1 352.7,54.2 343.6,54.2 
						347.9,46.6 376,46.6 371.7,54.2 361.6,54.2 366.3,62.6 366.7,63.2 367,62.6 371.7,54.2 					"/>
				</g>
			</g>
		</g>
	</g>
</g>
<image style="overflow:visible;" width="1130" height="1497" xlink:href="../../../../../mine/me.png"  transform="matrix(7.063220e-02 0 0 7.063220e-02 521.1396 443.4706)">
</image>
<text transform="matrix(1 0 0 1 458.4022 525.9882)" class="st32 st38 st37">Prof. Dr. Muhammad Akmal, M.Sc.</text>
<text transform="matrix(1 0 0 1 431.3963 539.9423)" class="st32 st40 st37">Head of Department of Language Development</text>
<image style="overflow:visible;" width="1472" height="1448" xlink:href="C:\Users\Muhammad Akmal\Downloads\laaaa.png"  transform="matrix(4.774737e-02 -3.624939e-03 3.624939e-03 4.774737e-02 483.3731 451.8585)">
</image>
</svg>
