<?xml version="1.0" encoding="utf-8"?>
<!-- Generator: Adobe Illustrator 25.4.1, SVG Export Plug-In . SVG Version: 6.00 Build 0)  -->
<svg version="1.1" id="Layer_1" xmlns="http://www.w3.org/2000/svg" xmlns:xlink="http://www.w3.org/1999/xlink" x="0px" y="0px"
	 viewBox="0 0 1080 419.3" style="enable-background:new 0 0 1080 419.3;" xml:space="preserve">
<style type="text/css">
	.st0{fill:#EAAE47;}
	.st1{fill:#04244D;}
</style>
<g>
	<g>
		<g>
			<path class="st0" d="M888,150.7v117.6h-29.7V150.7H888z"/>
			<path class="st0" d="M1016.4,162.3c8.6,8.8,12.9,21.2,12.9,37v69h-29.7v-65c0-9.3-2.3-16.5-7-21.5c-4.7-5-11-7.5-19.1-7.5
				c-8.2,0-14.7,2.5-19.4,7.5c-4.7,5-7.1,12.2-7.1,21.5v65h-29.7V150.7H947v14.6c4-5.1,9-9.1,15.2-12c6.2-2.9,12.9-4.4,20.3-4.4
				C996.5,149,1007.8,153.4,1016.4,162.3z"/>
		</g>
		<g>
			<path class="st1" d="M964.2,22.6L964.2,22.6h-0.1L878,72.5l-2.6,1.5v47c0,0.5,0.7,0.9,1.6,0.9c0.9,0,1.7-0.4,1.7-0.9V76.2
				l35.8,22.4c1.3-13.3,22.1-23.2,49.6-23.6h0.1c27.5,0.3,48.3,10.3,49.6,23.6l39.2-24.5L964.2,22.6z"/>
			<path class="st1" d="M964.1,80c-25.4,0-46,8.8-46,19.8V144c0-10.9,20.6-19.8,46-19.8c25.4,0,46,8.8,46,19.8V99.7
				C1010.1,88.8,989.5,80,964.1,80z"/>
		</g>
		<g>
			<path class="st1" d="M177.9,72.8v38.1h-51.7v157H78.7v-157H27.1V72.8H177.9z"/>
			<path class="st1" d="M243.6,257c-15.3-8.5-27.4-20.4-36.4-35.7c-9-15.3-13.5-32.5-13.5-51.5c0-19.1,4.5-36.2,13.5-51.4
				c9-15.2,21.1-27,36.4-35.6C258.9,74.3,275.7,70,294,70s35.1,4.3,50.4,12.8c15.3,8.5,27.3,20.4,36.1,35.6
				c8.8,15.2,13.2,32.3,13.2,51.4c0,19.1-4.4,36.3-13.3,51.5c-8.9,15.3-20.9,27.2-36.1,35.7c-15.2,8.5-31.9,12.8-50.3,12.8
				S258.9,265.5,243.6,257z M331.4,210.9c9.4-10.4,14-24.1,14-41.1c0-17.2-4.7-31-14-41.3c-9.4-10.3-21.8-15.4-37.4-15.4
				c-15.7,0-28.3,5.1-37.6,15.3c-9.4,10.2-14,24-14,41.4c0,17.2,4.7,31,14,41.3c9.4,10.3,21.9,15.4,37.6,15.4
				C309.6,226.5,322.1,221.3,331.4,210.9z"/>
			<path class="st1" d="M467.7,110.9v39.4h63.6V187h-63.6v42.8h72v38.1H420.2v-195h119.5v38.1H467.7z"/>
			<path class="st1" d="M697.4,72.8v38.1H618V152h59.5v37H618v78.9h-47.5v-195H697.4z"/>
			<path class="st1" d="M769.9,231.2h62.2v36.7H722.4v-195h47.5V231.2z"/>
		</g>
	</g>
	<g>
		<path class="st1" d="M125.9,353.3c2,2.5,2.9,5.3,2.9,8.5c0,2.9-0.7,5.4-2.1,7.6c-1.4,2.2-3.5,3.9-6.2,5.2
			c-2.7,1.2-5.9,1.9-9.5,1.9H87.7v-54.1H110c3.7,0,6.8,0.6,9.5,1.8c2.7,1.2,4.7,2.8,6,5c1.4,2.1,2.1,4.5,2.1,7.2
			c0,3.1-0.8,5.8-2.5,7.9c-1.7,2.1-3.9,3.6-6.7,4.5C121.4,349.3,123.9,350.8,125.9,353.3z M98.5,344.7h9.9c2.6,0,4.6-0.6,6-1.7
			c1.4-1.2,2.1-2.8,2.1-5c0-2.2-0.7-3.8-2.1-5c-1.4-1.2-3.4-1.8-6-1.8h-9.9V344.7z M115.6,365.7c1.5-1.2,2.2-3,2.2-5.3
			c0-2.3-0.8-4.1-2.3-5.5c-1.5-1.3-3.6-2-6.3-2H98.5v14.6h10.9C112.1,367.6,114.2,367,115.6,365.7z"/>
		<path class="st1" d="M178.5,333.5L152,396.7h-11.5l9.3-21.4l-17.2-41.8h12.2l11.1,30l11.2-30H178.5z"/>
		<path class="st1" d="M213.5,322.4v33.5c0,3.7,1,6.5,2.9,8.4c1.9,1.9,4.6,2.9,8.1,2.9c3.5,0,6.2-1,8.1-2.9s2.9-4.7,2.9-8.4v-33.5
			h10.9v33.4c0,4.6-1,8.5-3,11.7c-2,3.2-4.6,5.6-8,7.2c-3.3,1.6-7,2.4-11.1,2.4c-4,0-7.7-0.8-11-2.4c-3.3-1.6-5.9-4-7.8-7.2
			c-1.9-3.2-2.9-7.1-2.9-11.7v-33.4H213.5z"/>
		<path class="st1" d="M292.9,337.7c3.2,3.2,4.7,7.7,4.7,13.5v25.2h-10.8v-23.7c0-3.4-0.9-6-2.6-7.9c-1.7-1.8-4-2.8-7-2.8
			c-3,0-5.4,0.9-7.1,2.8c-1.7,1.8-2.6,4.5-2.6,7.9v23.7h-10.8v-42.9h10.8v5.3c1.4-1.9,3.3-3.3,5.5-4.4c2.2-1.1,4.7-1.6,7.4-1.6
			C285.7,332.9,289.8,334.5,292.9,337.7z"/>
		<path class="st1" d="M308.7,326.6c-1.3-1.2-1.9-2.7-1.9-4.5s0.6-3.3,1.9-4.5c1.3-1.2,2.9-1.8,4.8-1.8c1.9,0,3.5,0.6,4.8,1.8
			c1.3,1.2,1.9,2.7,1.9,4.5s-0.6,3.3-1.9,4.5c-1.3,1.2-2.9,1.8-4.8,1.8C311.6,328.4,310,327.8,308.7,326.6z M318.8,333.5v42.9H308
			v-42.9H318.8z"/>
		<path class="st1" d="M347.4,366.4l10.8-32.9h11.5l-15.9,42.9h-13.2l-15.8-42.9h11.6L347.4,366.4z"/>
		<path class="st1" d="M415.5,358.2h-31.4c0.3,3.1,1.3,5.5,3.3,7.3c1.9,1.8,4.3,2.6,7,2.6c4,0,6.9-1.7,8.6-5.2h11.7
			c-1.2,4.1-3.6,7.5-7.1,10.2c-3.5,2.7-7.8,4-12.9,4c-4.1,0-7.8-0.9-11.1-2.8c-3.3-1.8-5.8-4.4-7.7-7.8c-1.8-3.4-2.8-7.2-2.8-11.6
			c0-4.4,0.9-8.3,2.7-11.7c1.8-3.4,4.3-5.9,7.6-7.7c3.3-1.8,7-2.7,11.2-2.7c4.1,0,7.7,0.9,11,2.6c3.2,1.8,5.7,4.2,7.5,7.5
			c1.8,3.2,2.7,6.9,2.7,11.1C415.8,355.6,415.7,357,415.5,358.2z M404.5,350.9c-0.1-2.8-1.1-5-3-6.7c-2-1.7-4.4-2.5-7.2-2.5
			c-2.7,0-4.9,0.8-6.8,2.4c-1.8,1.6-3,3.9-3.4,6.8H404.5z"/>
		<path class="st1" d="M440,334.8c2.2-1.3,4.8-1.9,7.7-1.9v11.4h-2.9c-3.4,0-6,0.8-7.7,2.4c-1.7,1.6-2.6,4.4-2.6,8.4v21.4h-10.8
			v-42.9h10.8v6.7C435.9,337.9,437.7,336.1,440,334.8z"/>
		<path class="st1" d="M461.9,375.2c-2.8-1.3-5-3-6.6-5.1c-1.6-2.2-2.5-4.6-2.7-7.2h10.9c0.2,1.7,1,3,2.4,4.1
			c1.4,1.1,3.2,1.6,5.3,1.6c2.1,0,3.7-0.4,4.8-1.2c1.2-0.8,1.7-1.9,1.7-3.2c0-1.4-0.7-2.4-2.1-3.1c-1.4-0.7-3.7-1.5-6.8-2.3
			c-3.2-0.8-5.8-1.6-7.9-2.4c-2-0.8-3.8-2.1-5.3-3.8c-1.5-1.7-2.2-4-2.2-6.9c0-2.4,0.7-4.5,2-6.5c1.4-2,3.3-3.5,5.9-4.6
			c2.6-1.1,5.6-1.7,9-1.7c5.1,0,9.2,1.3,12.2,3.8c3,2.6,4.7,6,5,10.3h-10.4c-0.2-1.7-0.9-3.1-2.1-4.1c-1.3-1-3-1.5-5.1-1.5
			c-2,0-3.5,0.4-4.5,1.1c-1.1,0.7-1.6,1.7-1.6,3c0,1.4,0.7,2.5,2.2,3.3c1.4,0.7,3.7,1.5,6.7,2.3c3.1,0.8,5.7,1.6,7.7,2.4
			c2,0.8,3.8,2.1,5.2,3.8c1.5,1.7,2.2,4,2.3,6.9c0,2.5-0.7,4.7-2.1,6.7c-1.4,2-3.3,3.5-5.9,4.6c-2.6,1.1-5.5,1.7-8.9,1.7
			C467.9,377.1,464.7,376.5,461.9,375.2z"/>
		<path class="st1" d="M497.9,326.6c-1.3-1.2-1.9-2.7-1.9-4.5s0.6-3.3,1.9-4.5c1.3-1.2,2.9-1.8,4.8-1.8s3.5,0.6,4.8,1.8
			c1.3,1.2,1.9,2.7,1.9,4.5s-0.6,3.3-1.9,4.5c-1.3,1.2-2.9,1.8-4.8,1.8S499.2,327.8,497.9,326.6z M508,333.5v42.9h-10.8v-42.9H508z"
			/>
		<path class="st1" d="M531.3,342.4v20.8c0,1.4,0.3,2.5,1,3.1c0.7,0.6,1.9,1,3.5,1h5v9.1h-6.8c-9.1,0-13.7-4.4-13.7-13.3v-20.7h-5.1
			v-8.9h5.1v-10.6h10.9v10.6h9.6v8.9H531.3z"/>
		<path class="st1" d="M548.6,343.3c1.7-3.4,4.1-5.9,7-7.7c3-1.8,6.3-2.7,10-2.7c3.2,0,6,0.6,8.4,1.9c2.4,1.3,4.3,2.9,5.8,4.9v-6.1
			h10.9v42.9h-10.9v-6.3c-1.4,2-3.3,3.7-5.8,5s-5.3,2-8.5,2c-3.6,0-6.9-0.9-9.9-2.8c-3-1.9-5.3-4.5-7-7.9c-1.7-3.4-2.6-7.3-2.6-11.7
			C546,350.5,546.8,346.6,548.6,343.3z M578.2,348.2c-1-1.9-2.4-3.3-4.2-4.3c-1.8-1-3.6-1.5-5.7-1.5s-3.9,0.5-5.6,1.5
			c-1.7,1-3.1,2.4-4.1,4.3c-1.1,1.9-1.6,4.1-1.6,6.7c0,2.6,0.5,4.8,1.6,6.8c1.1,1.9,2.5,3.4,4.2,4.5c1.7,1,3.6,1.5,5.5,1.5
			c2,0,3.9-0.5,5.7-1.5c1.8-1,3.1-2.5,4.2-4.3c1-1.9,1.5-4.1,1.5-6.8C579.7,352.3,579.2,350.1,578.2,348.2z"/>
		<path class="st1" d="M608.2,375.2c-2.8-1.3-5-3-6.6-5.1c-1.6-2.2-2.5-4.6-2.7-7.2h10.9c0.2,1.7,1,3,2.4,4.1
			c1.4,1.1,3.2,1.6,5.3,1.6c2.1,0,3.7-0.4,4.8-1.2c1.2-0.8,1.7-1.9,1.7-3.2c0-1.4-0.7-2.4-2.1-3.1c-1.4-0.7-3.7-1.5-6.8-2.3
			c-3.2-0.8-5.8-1.6-7.9-2.4c-2-0.8-3.8-2.1-5.3-3.8c-1.5-1.7-2.2-4-2.2-6.9c0-2.4,0.7-4.5,2-6.5c1.4-2,3.3-3.5,5.9-4.6
			s5.6-1.7,9-1.7c5.1,0,9.2,1.3,12.2,3.8c3,2.6,4.7,6,5,10.3h-10.4c-0.2-1.7-0.9-3.1-2.1-4.1c-1.3-1-3-1.5-5.1-1.5
			c-2,0-3.5,0.4-4.5,1.1c-1.1,0.7-1.6,1.7-1.6,3c0,1.4,0.7,2.5,2.2,3.3c1.4,0.7,3.7,1.5,6.7,2.3c3.1,0.8,5.7,1.6,7.7,2.4
			c2,0.8,3.8,2.1,5.2,3.8c1.5,1.7,2.2,4,2.3,6.9c0,2.5-0.7,4.7-2.1,6.7c-1.4,2-3.3,3.5-5.9,4.6c-2.6,1.1-5.5,1.7-8.9,1.7
			C614.2,377.1,611,376.5,608.2,375.2z"/>
		<path class="st1" d="M662.9,335c2.4-4.2,5.7-7.5,9.8-9.8c4.2-2.3,8.8-3.5,14-3.5c6,0,11.3,1.5,15.9,4.6c4.5,3.1,7.7,7.4,9.5,12.9
			h-12.5c-1.2-2.6-3-4.5-5.2-5.8c-2.2-1.3-4.8-1.9-7.8-1.9c-3.1,0-6,0.7-8.4,2.2c-2.5,1.5-4.4,3.6-5.7,6.2c-1.4,2.7-2.1,5.8-2.1,9.4
			c0,3.6,0.7,6.7,2.1,9.4c1.4,2.7,3.3,4.8,5.7,6.3c2.4,1.5,5.3,2.2,8.4,2.2c2.9,0,5.5-0.7,7.8-2c2.2-1.3,4-3.3,5.2-5.8h12.5
			c-1.8,5.5-5,9.8-9.5,12.9c-4.5,3.1-9.8,4.6-15.9,4.6c-5.2,0-9.8-1.2-14-3.5c-4.2-2.4-7.4-5.6-9.8-9.8c-2.4-4.2-3.6-8.9-3.6-14.3
			C659.3,344,660.5,339.2,662.9,335z"/>
		<path class="st1" d="M729.3,374.4c-3.3-1.8-5.9-4.4-7.8-7.8c-1.9-3.4-2.8-7.2-2.8-11.6s1-8.3,2.9-11.6c1.9-3.4,4.6-6,7.9-7.8
			c3.4-1.8,7.1-2.7,11.2-2.7c4.1,0,7.9,0.9,11.2,2.7c3.4,1.8,6,4.4,7.9,7.8c1.9,3.4,2.9,7.2,2.9,11.6s-1,8.3-3,11.6
			c-2,3.4-4.7,6-8.1,7.8c-3.4,1.8-7.2,2.8-11.3,2.8C736.3,377.1,732.6,376.2,729.3,374.4z M746,366.2c1.7-1,3.1-2.4,4.1-4.3
			c1-1.9,1.5-4.2,1.5-7c0-4.1-1.1-7.2-3.2-9.4c-2.1-2.2-4.8-3.3-7.9-3.3s-5.7,1.1-7.8,3.3c-2.1,2.2-3.1,5.3-3.1,9.4s1,7.2,3.1,9.4
			c2,2.2,4.6,3.3,7.7,3.3C742.4,367.7,744.2,367.2,746,366.2z"/>
		<path class="st1" d="M787.1,334.8c2.2-1.3,4.8-1.9,7.7-1.9v11.4h-2.9c-3.4,0-6,0.8-7.7,2.4c-1.7,1.6-2.6,4.4-2.6,8.4v21.4h-10.8
			v-42.9h10.8v6.7C783,337.9,784.8,336.1,787.1,334.8z"/>
		<path class="st1" d="M801.9,343.3c1.7-3.4,4.1-5.9,7.1-7.7c3-1.8,6.3-2.7,10-2.7c2.8,0,5.4,0.6,8,1.8c2.5,1.2,4.5,2.8,6,4.8v-20.4
			h11v57.3h-11v-6.3c-1.3,2.1-3.2,3.8-5.7,5.1c-2.4,1.3-5.2,1.9-8.4,1.9c-3.6,0-6.9-0.9-9.9-2.8c-3-1.9-5.4-4.5-7.1-7.9
			c-1.7-3.4-2.6-7.3-2.6-11.7C799.3,350.5,800.2,346.6,801.9,343.3z M831.5,348.2c-1-1.9-2.4-3.3-4.2-4.3c-1.8-1-3.6-1.5-5.7-1.5
			s-3.9,0.5-5.6,1.5c-1.7,1-3.1,2.4-4.1,4.3c-1.1,1.9-1.6,4.1-1.6,6.7c0,2.6,0.5,4.8,1.6,6.8c1.1,1.9,2.5,3.4,4.2,4.5
			c1.7,1,3.6,1.5,5.5,1.5c2,0,3.9-0.5,5.7-1.5c1.8-1,3.1-2.5,4.2-4.3c1-1.9,1.5-4.1,1.5-6.8C833.1,352.3,832.5,350.1,831.5,348.2z"
			/>
		<path class="st1" d="M862.5,374.4c-3.3-1.8-5.9-4.4-7.8-7.8c-1.9-3.4-2.8-7.2-2.8-11.6s1-8.3,2.9-11.6c1.9-3.4,4.6-6,7.9-7.8
			c3.4-1.8,7.1-2.7,11.2-2.7c4.1,0,7.9,0.9,11.2,2.7c3.4,1.8,6,4.4,7.9,7.8c1.9,3.4,2.9,7.2,2.9,11.6s-1,8.3-3,11.6
			c-2,3.4-4.7,6-8.1,7.8c-3.4,1.8-7.2,2.8-11.3,2.8C869.5,377.1,865.8,376.2,862.5,374.4z M879.2,366.2c1.7-1,3.1-2.4,4.1-4.3
			c1-1.9,1.5-4.2,1.5-7c0-4.1-1.1-7.2-3.2-9.4c-2.1-2.2-4.8-3.3-7.9-3.3c-3.1,0-5.7,1.1-7.8,3.3c-2.1,2.2-3.1,5.3-3.1,9.4
			s1,7.2,3.1,9.4c2,2.2,4.6,3.3,7.7,3.3C875.6,367.7,877.4,367.2,879.2,366.2z"/>
		<path class="st1" d="M921.9,366.4l10.8-32.9h11.5l-15.9,42.9h-13.2l-15.8-42.9H911L921.9,366.4z"/>
		<path class="st1" d="M950.2,343.3c1.7-3.4,4.1-5.9,7-7.7c3-1.8,6.3-2.7,10-2.7c3.2,0,6,0.6,8.4,1.9c2.4,1.3,4.3,2.9,5.8,4.9v-6.1
			h10.9v42.9h-10.9v-6.3c-1.4,2-3.3,3.7-5.8,5c-2.5,1.3-5.3,2-8.5,2c-3.6,0-6.9-0.9-9.9-2.8c-3-1.9-5.3-4.5-7-7.9
			c-1.7-3.4-2.6-7.3-2.6-11.7C947.6,350.5,948.5,346.6,950.2,343.3z M979.8,348.2c-1-1.9-2.4-3.3-4.2-4.3c-1.8-1-3.6-1.5-5.7-1.5
			s-3.9,0.5-5.6,1.5c-1.7,1-3.1,2.4-4.1,4.3c-1.1,1.9-1.6,4.1-1.6,6.7c0,2.6,0.5,4.8,1.6,6.8c1.1,1.9,2.5,3.4,4.2,4.5
			c1.7,1,3.6,1.5,5.5,1.5c2,0,3.9-0.5,5.7-1.5c1.8-1,3.1-2.5,4.2-4.3c1-1.9,1.5-4.1,1.5-6.8C981.4,352.3,980.9,350.1,979.8,348.2z"
			/>
	</g>
</g>
</svg>
