<?xml version="1.0" encoding="utf-8"?>
<!-- Generator: Adobe Illustrator 25.4.1, SVG Export Plug-In . SVG Version: 6.00 Build 0)  -->
<svg version="1.1" id="Layer_1" xmlns="http://www.w3.org/2000/svg" xmlns:xlink="http://www.w3.org/1999/xlink" x="0px" y="0px"
	 viewBox="0 0 781.3 192" style="enable-background:new 0 0 781.3 192;" xml:space="preserve">
<style type="text/css">
	.st0{fill:#2563eb;}
</style>
<g>
	<g>
		<g>
			<polygon class="st0" points="396.4,45.2 324.5,45.2 320.8,63.2 345.5,63.2 333,125.5 355.7,125.5 368.2,63.2 392.7,63.2 			"/>
			<path class="st0" d="M462.5,48.2c-6-3-13.1-4.5-21.3-4.5c-7.3,0-14.1,1.2-20.2,3.6c-6.2,2.4-11.4,5.7-15.9,10
				c-4.4,4.3-7.9,9.4-10.3,15.2c-2.4,5.8-3.7,12.3-3.7,19.3c0,7,1.6,13.1,4.8,18.3c3.2,5.3,7.8,9.4,13.8,12.4c6,3,13.1,4.5,21.3,4.5
				c7.3,0,14.1-1.2,20.2-3.6c6.1-2.4,11.4-5.7,15.9-10c4.4-4.3,7.9-9.4,10.3-15.2c2.4-5.8,3.7-12.3,3.7-19.3c0-7-1.6-13.1-4.8-18.3
				C473,55.3,468.5,51.2,462.5,48.2z M456.4,91c-1.1,3.4-2.8,6.4-5,9c-2.2,2.6-4.8,4.7-7.9,6.1c-3.1,1.5-6.6,2.2-10.6,2.2
				c-4.1,0-7.5-0.7-10.3-2.2c-2.8-1.5-4.9-3.6-6.4-6.3c-1.5-2.7-2.2-5.8-2.2-9.3c0-3.7,0.6-7.3,1.7-10.7c1.1-3.4,2.8-6.4,5-9
				s4.8-4.7,8-6.1c3.1-1.5,6.6-2.2,10.5-2.2c4,0,7.5,0.7,10.3,2.2c2.8,1.5,4.9,3.6,6.4,6.2c1.5,2.7,2.2,5.8,2.2,9.4
				C458.2,84,457.6,87.6,456.4,91z"/>
			<polygon class="st0" points="559.9,62.8 563.5,45.2 500.7,45.2 484.6,125.5 548.9,125.5 552.6,107.9 510.5,107.9 513.4,93.3 
				549.1,93.3 552.5,76.3 516.8,76.3 519.5,62.8 			"/>
			<polygon class="st0" points="596.8,62.8 636.9,62.8 640.5,45.2 577.7,45.2 561.6,125.5 584.3,125.5 589.8,97.9 625.1,97.9 
				628.7,80.4 593.3,80.4 			"/>
			<polygon class="st0" points="674,45.2 651.3,45.2 635.2,125.5 696.2,125.5 699.9,107.5 661.6,107.5 			"/>
			<path class="st0" d="M724.1,60c-2.1,0-3.9,0.7-5.2,2c-1.3,1.3-2,2.9-2,4.8c0,1.6,0.6,3,1.7,4.2c1.2,1.2,2.7,1.7,4.5,1.7
				c2.2,0,4-0.6,5.3-2c1.3-1.3,2-3,2-5.1c0-1.6-0.6-2.9-1.8-4C727.6,60.5,726,60,724.1,60z"/>
			<polygon class="st0" points="706.6,125.5 717.2,125.5 726.2,80.2 715.6,80.2 			"/>
			<path class="st0" d="M780.4,89c-1.1-3.1-3-5.4-5.7-7c-2.7-1.6-6-2.4-9.9-2.4c-3.9,0-7.5,0.8-10.7,2.2c-1.8,0.8-3.4,1.9-4.8,3.3
				l1-5h-10.1l-9,45.3h10.6l4.7-23.5c0.9-4.4,2.6-7.7,5.2-9.8c2.5-2.1,5.8-3.2,9.7-3.2c3.7,0,6.3,1,7.7,3.1c1.4,2.1,1.8,4.9,1,8.6
				l-4.9,24.8h10.6l5-25.1C781.6,95.9,781.5,92.1,780.4,89z"/>
		</g>
	</g>
	<g>
		<path class="st0" d="M324.5,167.9c-0.4,2.1-1.1,3.6-2.1,4.6c-1,1-2.3,1.4-3.9,1.4c-1.7,0-3-0.5-3.8-1.5c-0.8-1-1-2.5-0.6-4.5
			l2.3-11.6h-3.8l-2.3,11.6c-0.4,1.9-0.3,3.5,0.2,4.9c0.5,1.4,1.4,2.5,2.7,3.2c1.3,0.8,2.9,1.1,4.9,1.1c2.8,0,5-0.8,6.7-2.3
			c1.7-1.5,2.9-3.8,3.5-6.8l2.3-11.8h-3.7L324.5,167.9z"/>
		<path class="st0" d="M346.3,161.9c-0.9-0.5-2.1-0.8-3.4-0.8s-2.6,0.3-3.7,0.8c-0.6,0.3-1.2,0.7-1.7,1.1l0.3-1.7h-3.5l-3.1,15.7
			h3.7l1.6-8.2c0.3-1.5,0.9-2.7,1.8-3.4c0.9-0.7,2-1.1,3.4-1.1c1.3,0,2.2,0.4,2.7,1.1c0.5,0.7,0.6,1.7,0.4,3L343,177h3.7l1.7-8.7
			c0.3-1.6,0.3-2.9-0.1-3.9C347.9,163.2,347.2,162.4,346.3,161.9z"/>
		<path class="st0" d="M357.4,154.2c-0.7,0-1.3,0.2-1.8,0.7c-0.5,0.5-0.7,1-0.7,1.7c0,0.6,0.2,1.1,0.6,1.5c0.4,0.4,0.9,0.6,1.6,0.6
			c0.8,0,1.4-0.2,1.8-0.7c0.5-0.5,0.7-1,0.7-1.8c0-0.5-0.2-1-0.6-1.4C358.6,154.4,358.1,154.2,357.4,154.2z"/>
		<polygon class="st0" points="351.3,177 355,177 358.1,161.2 354.5,161.2 		"/>
		<polygon class="st0" points="374,161.2 366.7,172.9 364.1,161.2 360.4,161.2 364.1,177 367.9,177 377.7,161.2 		"/>
		<path class="st0" d="M389.5,161.9c-1.1-0.5-2.4-0.8-3.8-0.8c-1.7,0-3.3,0.4-4.7,1.2c-1.4,0.8-2.4,1.9-3.2,3.3
			c-0.8,1.4-1.2,3-1.2,4.7c0,1.4,0.3,2.6,1,3.6c0.6,1,1.5,1.8,2.7,2.4c1.2,0.6,2.5,0.9,4.1,0.9c1.2,0,2.4-0.2,3.5-0.5
			c1.1-0.4,2.1-0.9,2.9-1.6l-1.5-2.6c-0.5,0.5-1.2,0.9-2,1.2c-0.8,0.3-1.6,0.4-2.5,0.4c-1.6,0-2.7-0.3-3.4-1
			c-0.7-0.7-1.1-1.6-1.1-2.8h12.5c0.1-0.3,0.1-0.7,0.2-1.1c0-0.4,0.1-0.8,0.1-1.1c0-1.4-0.3-2.7-0.9-3.7S390.6,162.4,389.5,161.9z
			 M382.7,164.8c0.8-0.5,1.7-0.8,2.8-0.8c0.9,0,1.7,0.2,2.3,0.5c0.6,0.4,1.1,0.9,1.4,1.5c0.2,0.5,0.3,1,0.3,1.7h-9
			c0.1-0.3,0.2-0.6,0.3-0.9C381.3,166,381.9,165.3,382.7,164.8z"/>
		<path class="st0" d="M406.3,164.6l0.7-3.5c-1.6,0-3,0.2-4.1,0.7c-0.7,0.3-1.4,0.8-2,1.5l0.4-2.1h-3.5l-3.1,15.7h3.7l1.6-7.7
			c0.3-1.6,0.9-2.9,1.9-3.6c0.9-0.8,2.1-1.1,3.6-1.1c0.2,0,0.3,0,0.5,0C406,164.5,406.1,164.5,406.3,164.6z"/>
		<path class="st0" d="M412.3,164.6c0.6-0.4,1.5-0.5,2.7-0.5c0.8,0,1.6,0.1,2.4,0.3c0.8,0.2,1.6,0.5,2.3,0.9l1.4-2.8
			c-0.7-0.4-1.5-0.8-2.5-1c-1-0.2-2.1-0.4-3.1-0.4c-1.5,0-2.8,0.2-3.9,0.6c-1.1,0.4-2,1-2.6,1.8c-0.6,0.8-0.9,1.7-0.9,2.9
			c0,0.9,0.2,1.6,0.6,2.1c0.4,0.5,0.9,0.9,1.6,1.2c0.6,0.3,1.3,0.5,2.1,0.6s1.4,0.3,2.1,0.4c0.6,0.1,1.2,0.3,1.6,0.5
			c0.4,0.2,0.6,0.5,0.6,1c0,0.6-0.3,1-0.9,1.4s-1.5,0.5-2.7,0.5c-1.1,0-2.1-0.1-3-0.4c-1-0.3-1.8-0.7-2.4-1.1l-1.5,2.8
			c0.6,0.5,1.6,0.9,2.8,1.2c1.2,0.3,2.5,0.5,3.9,0.5c1.5,0,2.8-0.2,3.9-0.6s2-1,2.7-1.8c0.6-0.8,1-1.8,1-2.9c0-0.9-0.2-1.6-0.6-2.1
			c-0.4-0.5-0.9-0.9-1.6-1.2c-0.6-0.3-1.3-0.5-2.1-0.6s-1.4-0.3-2.1-0.4c-0.6-0.1-1.2-0.3-1.6-0.6c-0.4-0.2-0.6-0.6-0.6-1
			C411.4,165.4,411.7,164.9,412.3,164.6z"/>
		<polygon class="st0" points="422.2,177 425.9,177 429,161.2 425.3,161.2 		"/>
		<path class="st0" d="M428.3,154.2c-0.7,0-1.3,0.2-1.8,0.7c-0.5,0.5-0.7,1-0.7,1.7c0,0.6,0.2,1.1,0.6,1.5c0.4,0.4,0.9,0.6,1.6,0.6
			c0.8,0,1.4-0.2,1.8-0.7c0.5-0.5,0.7-1,0.7-1.8c0-0.5-0.2-1-0.6-1.4C429.5,154.4,428.9,154.2,428.3,154.2z"/>
		<path class="st0" d="M438.7,157.8H435l-0.7,3.5h-2.6l-0.6,2.9h2.5l-1.5,7.5c-0.2,1.1-0.2,2.1,0.2,2.9c0.3,0.8,0.9,1.4,1.6,1.9
			c0.7,0.4,1.6,0.7,2.6,0.7c0.6,0,1.3-0.1,2-0.2c0.7-0.1,1.3-0.4,1.8-0.7l-0.6-2.7c-0.3,0.2-0.6,0.3-1,0.5c-0.4,0.1-0.7,0.2-1.1,0.2
			c-0.8,0-1.3-0.2-1.6-0.7c-0.3-0.5-0.4-1-0.2-1.8l1.5-7.5h4.2l0.6-2.9H438L438.7,157.8z"/>
		<path class="st0" d="M457.1,163.6c-0.5-0.8-1.1-1.4-1.9-1.8c-1-0.5-2.1-0.7-3.4-0.7c-1.3,0-2.5,0.2-3.5,0.7
			c-1.1,0.5-2,1.1-2.8,1.9c-0.8,0.8-1.4,1.8-1.9,2.9c-0.4,1.1-0.7,2.3-0.7,3.7c0,1.5,0.3,2.7,0.9,3.7c0.6,1,1.5,1.8,2.5,2.4
			c1,0.5,2.2,0.8,3.5,0.8c1.7,0,3.1-0.4,4.3-1.2c0.3-0.2,0.5-0.4,0.8-0.6l-0.3,1.6h3.5l3.1-15.7h-3.7L457.1,163.6z M453.6,173.3
			c-0.8,0.5-1.7,0.8-2.8,0.8c-1.3,0-2.3-0.4-3.1-1.1s-1.1-1.7-1.1-2.9c0-1.2,0.2-2.2,0.7-3.1c0.5-0.9,1.1-1.6,1.9-2.1
			c0.8-0.5,1.7-0.8,2.8-0.8c1.3,0,2.3,0.4,3.1,1.1c0.7,0.7,1.1,1.7,1.1,2.9c0,1.2-0.2,2.2-0.7,3.1
			C455,172.1,454.4,172.8,453.6,173.3z"/>
		<path class="st0" d="M468.2,164.6c0.6-0.4,1.5-0.5,2.7-0.5c0.8,0,1.6,0.1,2.4,0.3c0.8,0.2,1.6,0.5,2.3,0.9l1.4-2.8
			c-0.7-0.4-1.5-0.8-2.5-1c-1-0.2-2.1-0.4-3.1-0.4c-1.5,0-2.8,0.2-3.9,0.6c-1.1,0.4-2,1-2.6,1.8c-0.6,0.8-0.9,1.7-0.9,2.9
			c0,0.9,0.2,1.6,0.6,2.1c0.4,0.5,0.9,0.9,1.6,1.2c0.6,0.3,1.3,0.5,2.1,0.6s1.4,0.3,2.1,0.4c0.6,0.1,1.2,0.3,1.6,0.5
			c0.4,0.2,0.6,0.5,0.6,1c0,0.6-0.3,1-0.9,1.4s-1.5,0.5-2.7,0.5c-1.1,0-2.1-0.1-3-0.4c-1-0.3-1.8-0.7-2.4-1.1l-1.5,2.8
			c0.6,0.5,1.6,0.9,2.8,1.2c1.2,0.3,2.5,0.5,3.9,0.5c1.5,0,2.8-0.2,3.9-0.6s2-1,2.7-1.8c0.6-0.8,1-1.8,1-2.9c0-0.9-0.2-1.6-0.6-2.1
			c-0.4-0.5-0.9-0.9-1.6-1.2c-0.6-0.3-1.3-0.5-2.1-0.6s-1.4-0.3-2.1-0.4c-0.6-0.1-1.2-0.3-1.6-0.6c-0.4-0.2-0.6-0.6-0.6-1
			C467.4,165.4,467.6,164.9,468.2,164.6z"/>
		<path class="st0" d="M500.6,173.3c-1,0.4-2.1,0.6-3.2,0.6c-1.4,0-2.6-0.2-3.5-0.7c-1-0.5-1.7-1.1-2.2-2c-0.5-0.9-0.7-1.9-0.7-3
			c0-1.2,0.2-2.3,0.6-3.4s1-2,1.7-2.8s1.6-1.4,2.7-1.9c1.1-0.5,2.2-0.7,3.6-0.7c1.2,0,2.3,0.2,3.2,0.6c0.9,0.4,1.6,1,2.2,1.8
			l2.8-2.3c-0.7-1.1-1.8-2-3.1-2.6c-1.4-0.6-2.9-0.9-4.7-0.9c-1.9,0-3.7,0.3-5.2,1c-1.6,0.6-2.9,1.5-4,2.6s-2,2.4-2.6,3.9
			c-0.6,1.5-0.9,3.1-0.9,4.9c0,1.7,0.4,3.3,1.2,4.6c0.8,1.3,1.9,2.4,3.4,3.1s3.3,1.1,5.4,1.1c1.7,0,3.3-0.3,4.7-0.8s2.7-1.4,3.7-2.5
			l-2.2-2.4C502.5,172.3,501.6,172.9,500.6,173.3z"/>
		<path class="st0" d="M520.6,161.9c-1.1-0.6-2.5-0.8-4-0.8c-1.8,0-3.4,0.4-4.8,1.2c-1.4,0.8-2.5,1.9-3.3,3.3
			c-0.8,1.4-1.2,3-1.2,4.7c0,1.4,0.3,2.6,0.9,3.6c0.6,1,1.5,1.8,2.7,2.4c1.1,0.6,2.5,0.9,4,0.9c1.8,0,3.4-0.4,4.8-1.2
			c1.4-0.8,2.5-1.9,3.3-3.3c0.8-1.4,1.2-3,1.2-4.7c0-1.4-0.3-2.6-0.9-3.7C522.7,163.3,521.8,162.5,520.6,161.9z M519.8,171.2
			c-0.5,0.9-1.1,1.6-1.9,2.1c-0.8,0.5-1.7,0.8-2.8,0.8c-1.3,0-2.3-0.3-3.1-1c-0.7-0.7-1.1-1.7-1.1-2.9c0-1.2,0.2-2.2,0.7-3.1
			c0.5-0.9,1.1-1.6,1.9-2.1c0.8-0.5,1.7-0.8,2.8-0.8c1.3,0,2.3,0.4,3.1,1.1c0.7,0.7,1.1,1.7,1.1,2.9
			C520.5,169.3,520.3,170.3,519.8,171.2z"/>
		<path class="st0" d="M534.3,161.8c-0.7,0.3-1.4,0.8-2,1.5l0.4-2.1h-3.5l-3.1,15.7h3.7l1.6-7.7c0.3-1.6,0.9-2.9,1.9-3.6
			c0.9-0.8,2.1-1.1,3.6-1.1c0.2,0,0.3,0,0.5,0c0.1,0,0.3,0,0.4,0.1l0.7-3.5C536.8,161.1,535.4,161.3,534.3,161.8z"/>
		<path class="st0" d="M552.5,163.5c-0.5-0.8-1.2-1.4-2-1.8c-0.9-0.5-2.1-0.7-3.4-0.7c-1.3,0-2.4,0.2-3.5,0.7
			c-1.1,0.5-2,1.1-2.8,1.9c-0.8,0.8-1.4,1.8-1.9,2.9c-0.4,1.1-0.7,2.3-0.7,3.7c0,1.5,0.3,2.7,0.9,3.7c0.6,1,1.4,1.8,2.5,2.4
			s2.2,0.8,3.5,0.8c1.3,0,2.4-0.2,3.5-0.7c0.6-0.3,1.1-0.7,1.6-1.1L550,177h3.5l4.4-21.9h-3.7L552.5,163.5z M549,173.3
			c-0.8,0.5-1.7,0.8-2.8,0.8c-1.3,0-2.4-0.4-3.1-1.1c-0.7-0.7-1.1-1.7-1.1-2.9c0-1.2,0.2-2.2,0.7-3.1c0.5-0.9,1.1-1.6,1.9-2.1
			c0.8-0.5,1.7-0.8,2.8-0.8c1.3,0,2.4,0.4,3.1,1.1c0.7,0.7,1.1,1.7,1.1,2.9c0,1.2-0.2,2.2-0.7,3.1
			C550.4,172.1,549.8,172.8,549,173.3z"/>
		<path class="st0" d="M571.9,161.9c-1.1-0.6-2.5-0.8-4-0.8c-1.8,0-3.4,0.4-4.8,1.2c-1.4,0.8-2.5,1.9-3.3,3.3
			c-0.8,1.4-1.2,3-1.2,4.7c0,1.4,0.3,2.6,0.9,3.6c0.6,1,1.5,1.8,2.7,2.4c1.1,0.6,2.5,0.9,4,0.9c1.8,0,3.4-0.4,4.8-1.2
			c1.4-0.8,2.5-1.9,3.3-3.3c0.8-1.4,1.2-3,1.2-4.7c0-1.4-0.3-2.6-0.9-3.7C574,163.3,573.1,162.5,571.9,161.9z M571.1,171.2
			c-0.5,0.9-1.1,1.6-1.9,2.1c-0.8,0.5-1.7,0.8-2.8,0.8c-1.3,0-2.3-0.3-3.1-1c-0.7-0.7-1.1-1.7-1.1-2.9c0-1.2,0.2-2.2,0.7-3.1
			c0.5-0.9,1.1-1.6,1.9-2.1c0.8-0.5,1.7-0.8,2.8-0.8c1.3,0,2.3,0.4,3.1,1.1c0.7,0.7,1.1,1.7,1.1,2.9
			C571.8,169.3,571.6,170.3,571.1,171.2z"/>
		<polygon class="st0" points="591.1,161.2 583.8,172.9 581.2,161.2 577.5,161.2 581.2,177 585,177 594.8,161.2 		"/>
		<path class="st0" d="M607.9,163.6c-0.5-0.8-1.1-1.4-1.9-1.8c-1-0.5-2.1-0.7-3.4-0.7c-1.3,0-2.5,0.2-3.5,0.7
			c-1.1,0.5-2,1.1-2.8,1.9c-0.8,0.8-1.4,1.8-1.9,2.9c-0.4,1.1-0.7,2.3-0.7,3.7c0,1.5,0.3,2.7,0.9,3.7c0.6,1,1.5,1.8,2.5,2.4
			c1,0.5,2.2,0.8,3.5,0.8c1.7,0,3.1-0.4,4.3-1.2c0.3-0.2,0.5-0.4,0.8-0.6l-0.3,1.6h3.5l3.1-15.7h-3.7L607.9,163.6z M604.3,173.3
			c-0.8,0.5-1.7,0.8-2.8,0.8c-1.3,0-2.3-0.4-3.1-1.1s-1.1-1.7-1.1-2.9c0-1.2,0.2-2.2,0.7-3.1c0.5-0.9,1.1-1.6,1.9-2.1
			c0.8-0.5,1.7-0.8,2.8-0.8c1.3,0,2.3,0.4,3.1,1.1c0.7,0.7,1.1,1.7,1.1,2.9c0,1.2-0.2,2.2-0.7,3.1
			C605.8,172.1,605.1,172.8,604.3,173.3z"/>
		<polygon class="st0" points="622.2,177 626,177 630.2,156.4 626.3,156.4 		"/>
		<path class="st0" d="M646.4,161.9c-0.9-0.5-2.1-0.8-3.4-0.8s-2.6,0.3-3.7,0.8c-0.6,0.3-1.2,0.7-1.7,1.1l0.3-1.7h-3.5l-3.1,15.7
			h3.7l1.6-8.2c0.3-1.5,0.9-2.7,1.8-3.4c0.9-0.7,2-1.1,3.4-1.1c1.3,0,2.2,0.4,2.7,1.1c0.5,0.7,0.6,1.7,0.4,3l-1.7,8.6h3.7l1.7-8.7
			c0.3-1.6,0.3-2.9-0.1-3.9C648,163.2,647.3,162.4,646.4,161.9z"/>
		<path class="st0" d="M665.8,163.5c-0.5-0.8-1.2-1.4-2-1.8c-0.9-0.5-2.1-0.7-3.4-0.7c-1.3,0-2.4,0.2-3.5,0.7
			c-1.1,0.5-2,1.1-2.8,1.9c-0.8,0.8-1.4,1.8-1.9,2.9c-0.4,1.1-0.7,2.3-0.7,3.7c0,1.5,0.3,2.7,0.9,3.7c0.6,1,1.4,1.8,2.5,2.4
			s2.2,0.8,3.5,0.8c1.3,0,2.4-0.2,3.5-0.7c0.6-0.3,1.1-0.7,1.6-1.1l-0.3,1.6h3.5l4.4-21.9h-3.7L665.8,163.5z M662.3,173.3
			c-0.8,0.5-1.7,0.8-2.8,0.8c-1.3,0-2.4-0.4-3.1-1.1c-0.7-0.7-1.1-1.7-1.1-2.9c0-1.2,0.2-2.2,0.7-3.1c0.5-0.9,1.1-1.6,1.9-2.1
			c0.8-0.5,1.7-0.8,2.8-0.8c1.3,0,2.4,0.4,3.1,1.1c0.7,0.7,1.1,1.7,1.1,2.9c0,1.2-0.2,2.2-0.7,3.1
			C663.7,172.1,663.1,172.8,662.3,173.3z"/>
		<path class="st0" d="M685.2,161.9c-1.1-0.6-2.5-0.8-4-0.8c-1.8,0-3.4,0.4-4.8,1.2c-1.4,0.8-2.5,1.9-3.3,3.3
			c-0.8,1.4-1.2,3-1.2,4.7c0,1.4,0.3,2.6,0.9,3.6c0.6,1,1.5,1.8,2.7,2.4c1.1,0.6,2.5,0.9,4,0.9c1.8,0,3.4-0.4,4.8-1.2
			c1.4-0.8,2.5-1.9,3.3-3.3c0.8-1.4,1.2-3,1.2-4.7c0-1.4-0.3-2.6-0.9-3.7C687.3,163.3,686.4,162.5,685.2,161.9z M684.4,171.2
			c-0.5,0.9-1.1,1.6-1.9,2.1c-0.8,0.5-1.7,0.8-2.8,0.8c-1.3,0-2.3-0.3-3.1-1c-0.7-0.7-1.1-1.7-1.1-2.9c0-1.2,0.2-2.2,0.7-3.1
			c0.5-0.9,1.1-1.6,1.9-2.1c0.8-0.5,1.7-0.8,2.8-0.8c1.3,0,2.3,0.4,3.1,1.1c0.7,0.7,1.1,1.7,1.1,2.9
			C685.1,169.3,684.9,170.3,684.4,171.2z"/>
		<path class="st0" d="M705.8,161.9c-0.9-0.5-2.1-0.8-3.4-0.8s-2.6,0.3-3.7,0.8c-0.6,0.3-1.2,0.7-1.7,1.1l0.3-1.7h-3.5l-3.1,15.7
			h3.7l1.6-8.2c0.3-1.5,0.9-2.7,1.8-3.4c0.9-0.7,2-1.1,3.4-1.1c1.3,0,2.2,0.4,2.7,1.1c0.5,0.7,0.6,1.7,0.4,3l-1.7,8.6h3.7l1.7-8.7
			c0.3-1.6,0.3-2.9-0.1-3.9C707.4,163.2,706.8,162.4,705.8,161.9z"/>
		<path class="st0" d="M723.9,161.9c-1.1-0.5-2.4-0.8-3.8-0.8c-1.7,0-3.3,0.4-4.7,1.2c-1.4,0.8-2.4,1.9-3.2,3.3
			c-0.8,1.4-1.2,3-1.2,4.7c0,1.4,0.3,2.6,1,3.6c0.6,1,1.5,1.8,2.7,2.4c1.2,0.6,2.5,0.9,4.1,0.9c1.2,0,2.4-0.2,3.5-0.5
			c1.1-0.4,2.1-0.9,2.9-1.6l-1.5-2.6c-0.5,0.5-1.2,0.9-2,1.2c-0.8,0.3-1.6,0.4-2.5,0.4c-1.6,0-2.7-0.3-3.4-1
			c-0.7-0.7-1.1-1.6-1.1-2.8h12.5c0.1-0.3,0.1-0.7,0.2-1.1c0-0.4,0.1-0.8,0.1-1.1c0-1.4-0.3-2.7-0.9-3.7S725,162.4,723.9,161.9z
			 M717.1,164.8c0.8-0.5,1.7-0.8,2.8-0.8c0.9,0,1.7,0.2,2.3,0.5c0.6,0.4,1.1,0.9,1.4,1.5c0.2,0.5,0.3,1,0.3,1.7h-9
			c0.1-0.3,0.2-0.6,0.3-0.9C715.7,166,716.3,165.3,717.1,164.8z"/>
		<path class="st0" d="M734.4,164.6c0.6-0.4,1.5-0.5,2.7-0.5c0.8,0,1.6,0.1,2.4,0.3c0.8,0.2,1.6,0.5,2.3,0.9l1.4-2.8
			c-0.7-0.4-1.5-0.8-2.5-1c-1-0.2-2.1-0.4-3.1-0.4c-1.5,0-2.8,0.2-3.9,0.6c-1.1,0.4-2,1-2.6,1.8c-0.6,0.8-0.9,1.7-0.9,2.9
			c0,0.9,0.2,1.6,0.6,2.1c0.4,0.5,0.9,0.9,1.6,1.2c0.6,0.3,1.3,0.5,2.1,0.6s1.4,0.3,2.1,0.4c0.6,0.1,1.2,0.3,1.6,0.5
			c0.4,0.2,0.6,0.5,0.6,1c0,0.6-0.3,1-0.9,1.4s-1.5,0.5-2.7,0.5c-1.1,0-2.1-0.1-3-0.4c-1-0.3-1.8-0.7-2.4-1.1l-1.5,2.8
			c0.6,0.5,1.6,0.9,2.8,1.2c1.2,0.3,2.5,0.5,3.9,0.5c1.5,0,2.8-0.2,3.9-0.6s2-1,2.7-1.8c0.6-0.8,1-1.8,1-2.9c0-0.9-0.2-1.6-0.6-2.1
			c-0.4-0.5-0.9-0.9-1.6-1.2c-0.6-0.3-1.3-0.5-2.1-0.6s-1.4-0.3-2.1-0.4c-0.6-0.1-1.2-0.3-1.6-0.6c-0.4-0.2-0.6-0.6-0.6-1
			C733.5,165.4,733.8,164.9,734.4,164.6z"/>
		<path class="st0" d="M750.4,154.2c-0.7,0-1.3,0.2-1.8,0.7c-0.5,0.5-0.7,1-0.7,1.7c0,0.6,0.2,1.1,0.6,1.5c0.4,0.4,0.9,0.6,1.6,0.6
			c0.8,0,1.4-0.2,1.8-0.7c0.5-0.5,0.7-1,0.7-1.8c0-0.5-0.2-1-0.6-1.4C751.6,154.4,751,154.2,750.4,154.2z"/>
		<polygon class="st0" points="744.3,177 748,177 751.1,161.2 747.4,161.2 		"/>
		<path class="st0" d="M767.6,161.2l-0.5,2.3c-0.5-0.8-1.1-1.4-1.9-1.8c-1-0.5-2.1-0.7-3.4-0.7c-1.3,0-2.5,0.2-3.5,0.7
			c-1.1,0.5-2,1.1-2.8,1.9c-0.8,0.8-1.4,1.8-1.9,2.9c-0.4,1.1-0.7,2.3-0.7,3.7c0,1.5,0.3,2.7,0.9,3.7c0.6,1,1.5,1.8,2.5,2.4
			c1,0.5,2.2,0.8,3.5,0.8c1.7,0,3.1-0.4,4.3-1.2c0.3-0.2,0.5-0.4,0.8-0.6l-0.3,1.6h3.5l3.1-15.7H767.6z M763.6,173.3
			c-0.8,0.5-1.7,0.8-2.8,0.8c-1.3,0-2.3-0.4-3.1-1.1s-1.1-1.7-1.1-2.9c0-1.2,0.2-2.2,0.7-3.1c0.5-0.9,1.1-1.6,1.9-2.1
			c0.8-0.5,1.7-0.8,2.8-0.8c1.3,0,2.3,0.4,3.1,1.1c0.7,0.7,1.1,1.7,1.1,2.9c0,1.2-0.2,2.2-0.7,3.1
			C765.1,172.1,764.4,172.8,763.6,173.3z"/>
	</g>
	<g>
		<polygon class="st0" points="107.1,127 70.9,192 0,192 36.3,127 		"/>
		<polygon class="st0" points="296.3,60.4 259.2,127 222.9,192 148.6,192 112.3,127 109.7,122.4 75.1,60.4 3.8,60.4 37.6,0 259.2,0 
			225.5,60.4 146,60.4 183.1,127 185.7,131.6 188.3,127 225.5,60.4 		"/>
	</g>
</g>
</svg>
